<svg xmlns="http://www.w3.org/2000/svg" width="13.5" height="13.5" viewBox="0 0 13.5 13.5"><defs><style>.a{fill:none;}.b{fill:#b9d4dc;}</style></defs><path class="a" d="M0,0H13.5V13.5H0Z"/><path class="b" d="M8.5,5.069A1.181,1.181,0,1,1,7.319,6.25,1.181,1.181,0,0,1,8.5,5.069m0,5.062c1.671,0,3.431.821,3.431,1.181v.619H5.069v-.619c0-.36,1.761-1.181,3.431-1.181M8.5,4a2.25,2.25,0,1,0,2.25,2.25A2.249,2.249,0,0,0,8.5,4Zm0,5.063c-1.5,0-4.5.754-4.5,2.25V13h9V11.313C13,9.816,10,9.063,8.5,9.063Z" transform="translate(-1.75 -1.75)"/></svg>