<?xml version="1.0" encoding="utf-8"?>
<!-- Generator: Adobe Illustrator 23.0.3, SVG Export Plug-In . SVG Version: 6.00 Build 0)  -->
<svg version="1.1" xmlns="http://www.w3.org/2000/svg" xmlns:xlink="http://www.w3.org/1999/xlink" x="0px" y="0px"
	 viewBox="0 0 1799.6 1200.87" style="enable-background:new 0 0 1799.6 1200.87;" xml:space="preserve">
<style type="text/css">
	.st0{fill:#F44E4E;}
	.st1{fill:#5A54FF;}
	.st2{fill:#FAE026;}
	.st3{fill:#FFFFFF;}
	.st4{fill:#978CFF;}
	.st5{fill:#A7ADFF;}
	.st6{fill:#EFF0FC;}
	.st7{fill:#E3E5FC;}
	.st8{fill:#4B369D;}
</style>
<g id="Nature">
	<g id="Plant">
		<path class="st0" d="M1539.05,491.81c1.3,2.15,1.58,4.76,1.65,7.28c0.66,22.99-14.44,45.6-35.92,53.79
			c-5.05,1.93-10.58,3.24-14.52,6.93c-3.94,3.7-5.22,10.96-0.89,14.18c2.87,2.13,6.84,1.65,10.37,1.07
			c12.89-2.13,25.79-4.26,38.68-6.39c2.58,11.77-4.32,24.9-15.48,29.44c-4.67,1.9-9.87,2.43-14.33,4.79
			c-4.46,2.36-8.1,7.66-6.16,12.32c1.76,4.24,7.57,6.77,7.16,11.35c-0.39,4.43-5.99,5.81-10.16,7.32
			c-21.57,7.78-20.76,39.11-35.32,56.82c-9.45,11.49-24.63,16.2-38.92,20.35c-12.33,3.58-25.24,7.19-37.84,4.74
			c-20.67-4.01-35.95-26.23-32.29-46.96c3.65-20.7,22.05-34.94,38.18-48.41c33.8-28.22,60.85-54.44,68.7-97.99
			c2.62-14.53,6.85-24.34,19.98-32.48C1495.13,481.78,1528.75,474.76,1539.05,491.81z"/>
		<path class="st1" d="M1344,650.42c9.84-12.8,19.69-25.6,29.53-38.4c29.1-37.83,58.61-76.39,75.37-121.08
			c6.63-17.67,11.21-36.5,9.67-55.3c-0.31-3.87-1.06-8.05-3.94-10.65c-4.9-4.42-12.64-1.82-18.49,1.21
			c-17.57,9.1-34.04,20.31-48.94,33.33c-0.47-41.26,39.65-72.49,46.81-113.13c1.16-6.59,1.31-13.81-2.22-19.49
			c-2.27-3.65-5.88-6.33-9.78-8.13c-13.27-6.14-29.41-2.49-41.6,5.59c-12.18,8.08-21.23,19.98-30.02,31.66
			c12.26-15.59,19.97-34.72,21.95-54.46c0.82-8.18,0.39-17.24-5.04-23.42c-9.2-10.46-27.22-6.15-37.04,3.75
			c-18.93,19.08-18.12,49.46-17.47,76.33c0.65,26.87-2.42,58.21-24.94,72.89c-2.7,1.76-5.74,3.34-7.31,6.16
			c-3.06,5.49,1.25,12.46,6.67,15.65s11.92,4.24,17.23,7.6c11.91,7.53,14.29,23.93,12.99,37.96c-1.3,14.03-5.01,28.49-0.75,41.93
			c5.29,16.71,6.41,38.05,10.3,55.14c1.76,7.76,16.2,6.1,16.49,14.05c0.3,7.95,2.44,16.55,8.8,21.33
			c6.37,4.77,17.65,2.84,19.59-4.88"/>
		<path class="st2" d="M1572.94,918.95c17.78-1.54,36.19-3.88,51.27-13.42c5.6-3.54,11.1-10.42,7.77-16.15
			c-1.32-2.27-3.73-3.64-6.07-4.82c-24.13-12.22-52.62-15.6-78.94-9.35c-10.47,2.48-21.61,6.4-31.62,2.46
			c22.61-12.73,45.22-25.45,67.83-38.18c4.42-2.49,9.02-5.14,11.77-9.4s2.94-10.64-0.98-13.87c-1.72-1.42-3.96-2.04-6.16-2.44
			c-13.61-2.5-28.35,2.36-37.82,12.45c14.22-18.34,23.7-40.33,27.26-63.27c0.51-3.3,0.84-6.9-0.89-9.75
			c-1.57-2.58-4.53-3.96-7.42-4.82c-10.1-2.99-21.55-1-30.06,5.22c-9.92,7.26-15.16,19.08-21.9,29.36
			c-6.75,10.27-17.18,20.1-29.43,19.12c12.96-19.44,19.51-43.07,18.4-66.41c-0.39-8.18-1.84-16.68-6.71-23.26
			c-6.07-8.19-16.82-12.12-26.99-11.47c-10.17,0.65-19.75,5.4-27.72,11.75c-23.85,19.03-33.68,53.82-23.3,82.51
			c2.58,7.14,6.32,14.82,3.69,21.95c-1.85,5-6.44,8.4-10.92,11.3c-30.07,19.49-67.43,51.27-28.89,85.6
			c10.43,9.29,21.25,9.68,34.62,9.31c21.66-0.6,43.27-0.44,64.95-0.63C1514.11,922.5,1543.58,921.5,1572.94,918.95z"/>
		<g>
			<path class="st3" d="M1314.5,636.14c-0.15,0-0.3-0.02-0.46-0.06c-1.01-0.25-1.61-1.27-1.36-2.28
				c58.83-232.82,59.98-233.95,60.47-234.44c0.74-0.73,1.92-0.72,2.65,0.02c0.59,0.6,0.7,1.5,0.32,2.2
				c-2.16,5.77-40.01,154.81-59.81,233.14C1316.1,635.57,1315.33,636.14,1314.5,636.14z"/>
		</g>
		<g>
			<path class="st3" d="M1339.81,536.3c-0.71,0-1.38-0.4-1.7-1.08c-0.44-0.94-0.03-2.05,0.91-2.49l72.73-33.81
				c0.93-0.43,2.06-0.03,2.49,0.91c0.44,0.94,0.03,2.05-0.91,2.49l-72.73,33.81C1340.35,536.25,1340.08,536.3,1339.81,536.3z"/>
		</g>
		<g>
			<path class="st3" d="M1437.94,649.88c-0.24,0-0.48-0.05-0.72-0.14c-0.96-0.4-1.41-1.49-1.01-2.45l47.04-113.57
				c0.4-0.96,1.5-1.41,2.45-1.01c0.96,0.4,1.41,1.49,1.01,2.45l-47.04,113.57C1439.37,649.44,1438.68,649.88,1437.94,649.88z"/>
		</g>
		<g>
			<path class="st3" d="M1437.94,914.94c-0.47,0-0.94-0.17-1.3-0.52c-0.75-0.72-0.77-1.9-0.05-2.65l78.89-82.08
				c0.72-0.75,1.91-0.76,2.65-0.05c0.75,0.72,0.77,1.9,0.05,2.65l-78.89,82.08C1438.93,914.75,1438.43,914.94,1437.94,914.94z"/>
		</g>
		<g>
			<path class="st3" d="M1537.44,902.18c-0.15,0-0.31-0.02-0.47-0.06l-68.69-17.9c-1-0.26-1.6-1.28-1.34-2.29
				c0.26-1,1.28-1.6,2.28-1.34l68.69,17.9c1,0.26,1.6,1.28,1.34,2.29C1539.03,901.62,1538.28,902.18,1537.44,902.18z"/>
		</g>
	</g>
</g>
<g id="UI">
	<g id="Computer">
		<g>
			<path class="st4" d="M993.24,889.26H751.87c-8.11,0-14.75-6.64-14.75-14.75v0c0-8.11,6.64-14.75,14.75-14.75h241.38
				c8.11,0,14.75,6.64,14.75,14.75v0C1008,882.62,1001.36,889.26,993.24,889.26z"/>
			<path class="st4" d="M917.78,889.26h-90.45c-6.33,0-11.51-5.18-11.51-11.51V769.86c0-6.33,5.18-11.51,11.51-11.51h90.45
				c6.33,0,11.51,5.18,11.51,11.51v107.89C929.29,884.08,924.11,889.26,917.78,889.26z"/>
			<g>
				<path class="st5" d="M1294.18,797.91H450.93c-17.43,0-31.69-14.26-31.69-31.69V253.88c0-17.43,14.26-31.69,31.69-31.69h843.25
					c17.43,0,31.69,14.26,31.69,31.69v512.34C1325.88,783.65,1311.61,797.91,1294.18,797.91z"/>
				<path class="st6" d="M462.55,235.59c-15.69,0-28.52,12.83-28.52,28.52v184.22c89.78-72.08,180.85-142.86,272.83-212.74H462.55z"
					/>
				<path class="st7" d="M1279.09,235.59h-81.48H706.85c-91.98,69.88-183.05,140.66-272.83,212.74v193.41v69.63
					c0,15.69,12.84,28.52,28.52,28.52h816.54c15.69,0,28.52-12.84,28.52-28.52V264.11C1307.61,248.42,1294.77,235.59,1279.09,235.59
					z"/>
			</g>
		</g>
		<circle class="st8" cx="870.82" cy="765.18" r="7.88"/>
	</g>
</g>
<g id="Nature_1_">
	<g id="Plant_6_">
		<g>
			<path class="st1" d="M182.44,905.85c-1.53-1.36-3.13-2.95-3.33-4.99c-0.24-2.48,1.71-4.65,3.81-6
				c5.46-3.53,12.32-3.81,18.61-5.47c6.29-1.66,12.94-5.92,13.38-12.4c0.89-13.17-21.73-24.33-30.11-31.25
				c-6.1-5.04-12.37-10.3-15.85-17.4s-3.38-16.6,2.39-22.01c7.15-6.71,37.5-0.89,45.44-6.66c10.28-7.47-57.53-26.87-1.11-34.83
				c-12.43-33.26,24.29-22.05,32.55-13.71c5.3,5.35,19.46,22.47,26.15,19c3.09-1.6,18.56,2.38,20.71-0.37
				c8.79-11.23-9.81-0.39,2.48-7.49c14.09,27.07-6.57,64.16-8.39,92.31c-0.91,14.13,16.03,15.8,16.55,31.15
				c0.31,9.06-3.44,17.7-7.11,25.99c-4.81,10.86-10.41,22.56-21.1,27.75c-8.99,4.37-19.66,3.09-29.38,0.75
				C223.85,934.37,201.07,922.45,182.44,905.85z"/>
			<g>
				<path class="st3" d="M285.31,956.51c-0.78,0-1.5-0.49-1.77-1.26l-52.46-152.33c-0.34-0.98,0.18-2.04,1.16-2.38
					c0.98-0.34,2.04,0.18,2.38,1.16l52.46,152.33c0.34,0.98-0.18,2.04-1.16,2.38C285.72,956.48,285.51,956.51,285.31,956.51z"/>
			</g>
			<g>
				<path class="st3" d="M249.69,853.06c-0.24,0-0.49-0.05-0.73-0.15c-44.36-18.72-44.33-19.7-44.26-21.32
					c0.03-0.78,0.59-1.52,1.34-1.76c0.85-0.28,1.76,0.08,2.2,0.82c3.51,2.22,27.39,12.57,42.18,18.82c0.95,0.4,1.4,1.5,1,2.45
					C251.11,852.63,250.42,853.06,249.69,853.06z"/>
			</g>
		</g>
		<g>
			<path class="st3" d="M275.21,927.19c-0.21,0-0.42-0.04-0.63-0.11c-0.41-0.15-57.97-20.43-57.97-20.43l1.24-3.53
				c58.38,20.57,58.38,20.57,58.68,20.88c0.62,0.62,0.73,1.58,0.26,2.33C276.45,926.87,275.84,927.19,275.21,927.19z"/>
		</g>
	</g>
	<g id="Plant_5_">
		<path class="st2" d="M620.53,876.08c4.24-3.13,8.87-6.96,9.17-12.22c0.32-5.61-5.01-10.44-10.6-10.97
			c-5.6-0.53-11.05,2.35-15.11,6.25c-4.47-18.18,29.12-27.94,26.3-46.44c-8.84-3.07-19.49,0.25-25.02,7.81
			c-6.03-14.09,3.33-29.75,12.88-41.74c9.55-11.99,20.4-25.83,17.46-40.87c-8.51-1.36-17.58,1.27-24.04,6.98
			c-4.11-6.78-4.84-15.51-1.92-22.88c1.76-4.45,4.83-8.79,4.12-13.52c-1.45-9.71-15.24-10.15-24.81-7.95
			c1.41-22.42-17.61-44.13-40.02-45.68c-9.92-0.69-22.21,4.92-21.8,14.86c0.14,3.5,1.89,6.69,3.38,9.85
			c6.73,14.32,8.67,30.85,5.44,46.34c-2.87,13.77-9.41,29.11-1.69,40.87c2.49,3.8,6.25,6.66,8.66,10.52
			c2.83,4.52,3.57,9.99,4.25,15.27c3.53,27.5-0.03,78.38,18.23,101.04c17.87,22.18,56.92-6.7,73.6-19.07
			c26.42-19.58,46.91-50.18,45.77-83.04c-0.07-1.97-0.31-4.14-1.77-5.46c-1.61-1.46-4.07-1.32-6.23-1.09
			c-9.68,1.03-19.37,2.05-29.05,3.08c4.79-25.02,33.78-42.27,32.66-67.72c-6.91-0.75-13.83-1.5-20.74-2.25
			c5.67-9.22,11.45-18.76,13.06-29.46c1.61-10.7-2.03-22.96-11.44-28.29c-13.76-7.79-30.45,2.3-42.93,11.96
			c26.99-21.15,49.38-162.39-13.12-131.32c-6.87,3.42-14.87,6.13-22.1,3.58c-17.42-6.14-1.52-34.1-10.61-46.73
			c-3.22-4.48-8.4-7.22-13.72-8.67c-12.35-3.38-26.3-0.21-35.97,8.18s-14.79,21.74-13.2,34.45c1.18,9.4,5.7,18,9.85,26.52
			c13.41,27.52-100.5-46.34-57.29,55.36c-17.17-11.64,50.13,11.05,29.65,14.35c-20.48,3.3-39.4,21.21-38.33,41.93
			c1,19.14,17.11,33.47,31.38,46.26c14.28,12.79,29.05,29.5,26.15,48.45c-1.67,10.88-8.98,19.95-13.16,30.14
			c-4.19,10.18-3.94,24.23,5.66,29.62c5.61,3.15,13.09,2.45,17.93,6.69c4.49,3.93,5.03,10.56,5.87,16.47
			c2.89,20.36,15.94,48.29,34.95,58.72C580.44,916.16,604.67,887.81,620.53,876.08z"/>
		<g>
			<g>
				<path class="st3" d="M614.43,910.74c-0.88,0-1.67-0.63-1.84-1.52l-45.86-242.13c-0.19-1.02,0.48-2,1.49-2.19
					c1.04-0.19,2,0.48,2.19,1.49l45.86,242.13c0.19,1.02-0.48,2-1.49,2.19C614.66,910.73,614.54,910.74,614.43,910.74z"/>
			</g>
			<g>
				<path class="st3" d="M591.94,792c-0.34,0-0.68-0.09-0.99-0.28c-0.88-0.55-1.15-1.7-0.6-2.58l42.47-68.5
					c0.55-0.88,1.7-1.15,2.58-0.6c0.88,0.55,1.15,1.7,0.6,2.58l-42.47,68.5C593.17,791.68,592.56,792,591.94,792z"/>
			</g>
			<g>
				<path class="st3" d="M555.41,657.65c-0.34,0-0.68-0.09-0.99-0.28c-0.88-0.55-1.15-1.7-0.6-2.58l42.47-68.5
					c0.55-0.88,1.7-1.15,2.58-0.6c0.88,0.55,1.15,1.7,0.6,2.58L557,656.77C556.65,657.34,556.04,657.65,555.41,657.65z"/>
			</g>
		</g>
	</g>
	<g id="Plant_2_">
		<path class="st0" d="M910.74,770.57c2.12-1.44,4.45-2.54,6.93-3.19c10.34-2.71,21.08,2.68,29.48,9.28
			c8.41,6.6,15.93,14.7,25.78,18.85c4.58,1.93,11.68,1.63,12.46-3.28c0.36-2.28-0.98-4.45-2.31-6.34
			c-13.34-18.98-31.42-33.18-47.87-49.25c-4.4-4.3-9.18-10.24-6.8-15.91c2.55-6.09,11.45-6.33,17.24-3.17
			c5.79,3.16,10.25,8.54,16.33,11.09c1.59,0.67,3.34,1.13,5.03,0.79c3.2-0.64,5.24-4.06,5.4-7.32c0.99-20.06-24.2-33.92-32.91-49.63
			c-7.43-13.41-7.41-29.61-6.15-44.89c0.99-11.93,2.96-24.59,10.88-33.56c1.79-2.03,4.06-3.91,6.75-4.1
			c10.26-0.76,12.3,23.03,18.49,29.24c5.63,5.64,13.39,9.34,17.28,16.29c4.91,8.77,2.1,19.7,3.55,29.65
			c2.31,15.91,16.88,18.73,21.98,30.48c0.14-9.09,0.17-18.3,0.24-27.44c0.02-2.91,0.19-6.18,2.34-8.15
			c4.68-4.3,11.81,2.3,13.15,8.51c1.77,8.17,0.15,16.66,0.25,25.02c0.1,8.36,2.6,17.64,9.81,21.88c7.95,4.67,17.95,1.39,26.76-1.33
			c8.81-2.72,19.79-4.23,26,2.59c2.44,2.67,3.66,6.24,4.35,9.79c5.82,30.09-22.52,60.05-13.81,89.43
			c7.81,26.34,24.89,41.59-2.34,63.43c-11.16,8.95-23.52,13.27-37.84,10.01c-10.96-2.49-20.87-8.2-30.77-13.51
			c-20.45-10.95-43.48-15.63-65.08-24.01c-15.07-5.85-29.78-14.28-39.11-27.49c-9.33-13.21-12.09-31.97-3.36-45.58
			C904.92,775.55,907.6,772.7,910.74,770.57z"/>
		<g>
			<path class="st3" d="M1061.39,890.75c-0.74,0-1.44-0.44-1.73-1.16l-92.87-226.51c-0.39-0.96,0.07-2.05,1.02-2.44
				c0.95-0.39,2.06,0.06,2.44,1.02l92.87,226.51c0.39,0.96-0.07,2.05-1.02,2.44C1061.87,890.7,1061.63,890.75,1061.39,890.75z"/>
		</g>
		<g>
			<path class="st3" d="M1042.87,845.56c-0.13,0-0.26-0.01-0.4-0.04l-92.45-19.88c-1.01-0.22-1.65-1.21-1.44-2.22
				c0.22-1.01,1.21-1.65,2.23-1.44l92.45,19.88c1.01,0.22,1.65,1.21,1.44,2.22C1044.51,844.96,1043.73,845.56,1042.87,845.56z"/>
		</g>
		<g>
			<path class="st3" d="M1008,760.53c-0.2,0-0.42-0.03-0.62-0.11l-35.73-12.6c-0.98-0.34-1.49-1.41-1.15-2.39
				c0.34-0.97,1.42-1.48,2.39-1.14l35.73,12.6c0.98,0.34,1.49,1.41,1.15,2.39C1009.5,760.04,1008.77,760.53,1008,760.53z"/>
		</g>
		<g>
			<path class="st3" d="M1018.6,786.37c-0.17,0-0.35-0.02-0.52-0.08c-1-0.29-1.57-1.33-1.28-2.32l13.73-47.19
				c0.29-0.99,1.32-1.58,2.32-1.28c1,0.29,1.57,1.33,1.28,2.32l-13.73,47.19C1020.16,785.84,1019.41,786.37,1018.6,786.37z"/>
		</g>
	</g>
</g>
<g id="UI_1_">
	<g id="Line_1_">
		<g>
			<g>
				<path class="st8" d="M310.11,688.36c-1.04,0-1.87-0.84-1.87-1.87v-5.62c0-1.04,0.84-1.87,1.87-1.87s1.87,0.84,1.87,1.87v5.62
					C311.98,687.52,311.15,688.36,310.11,688.36z"/>
			</g>
			<g>
				<path class="st8" d="M310.11,671.32c-1.04,0-1.87-0.84-1.87-1.87v-11.42c0-1.04,0.84-1.87,1.87-1.87s1.87,0.84,1.87,1.87v11.42
					C311.98,670.48,311.15,671.32,310.11,671.32z M310.11,648.48c-1.04,0-1.87-0.84-1.87-1.87v-11.42c0-1.04,0.84-1.87,1.87-1.87
					s1.87,0.84,1.87,1.87v11.42C311.98,647.64,311.15,648.48,310.11,648.48z M310.11,625.64c-1.04,0-1.87-0.84-1.87-1.87v-11.42
					c0-1.04,0.84-1.87,1.87-1.87s1.87,0.84,1.87,1.87v11.42C311.98,624.8,311.15,625.64,310.11,625.64z M310.11,602.8
					c-1.04,0-1.87-0.84-1.87-1.87V589.5c0-1.04,0.84-1.87,1.87-1.87s1.87,0.84,1.87,1.87v11.42
					C311.98,601.96,311.15,602.8,310.11,602.8z M310.11,579.96c-1.04,0-1.87-0.84-1.87-1.87v-11.42c0-1.04,0.84-1.87,1.87-1.87
					s1.87,0.84,1.87,1.87v11.42C311.98,579.12,311.15,579.96,310.11,579.96z M310.11,557.12c-1.04,0-1.87-0.84-1.87-1.87v-11.42
					c0-1.04,0.84-1.87,1.87-1.87s1.87,0.84,1.87,1.87v11.42C311.98,556.28,311.15,557.12,310.11,557.12z M310.11,534.28
					c-1.04,0-1.87-0.84-1.87-1.87v-11.42c0-1.04,0.84-1.87,1.87-1.87s1.87,0.84,1.87,1.87v11.42
					C311.98,533.44,311.15,534.28,310.11,534.28z M310.11,511.44c-1.04,0-1.87-0.84-1.87-1.87v-11.42c0-1.04,0.84-1.87,1.87-1.87
					s1.87,0.84,1.87,1.87v11.42C311.98,510.6,311.15,511.44,310.11,511.44z M310.11,488.6c-1.04,0-1.87-0.84-1.87-1.87V475.3
					c0-1.04,0.84-1.87,1.87-1.87s1.87,0.84,1.87,1.87v11.42C311.98,487.76,311.15,488.6,310.11,488.6z M310.11,465.76
					c-1.04,0-1.87-0.84-1.87-1.87v-9.46c-0.02-0.04-0.11-0.74-0.18-1.83c-0.07-1.03,0.72-1.92,1.75-1.99
					c1.02-0.06,1.92,0.72,1.99,1.75c0.07,1.07,0.16,1.7,0.16,1.74l0.02,9.79C311.98,464.92,311.15,465.76,310.11,465.76z
					 M310.75,442.98c-0.13,0-0.26-0.01-0.39-0.04c-1.01-0.22-1.66-1.21-1.44-2.22c0.89-4.17,2.39-7.93,4.46-11.17
					c0.56-0.87,1.72-1.13,2.59-0.57c0.87,0.56,1.13,1.71,0.57,2.59c-1.83,2.87-3.16,6.21-3.95,9.94
					C312.39,442.37,311.61,442.98,310.75,442.98z M322.93,424.39c-0.61,0-1.22-0.3-1.58-0.86c-0.56-0.87-0.31-2.03,0.56-2.59
					c3.19-2.06,6.93-3.59,11.1-4.54c0.99-0.25,2.01,0.4,2.24,1.41c0.23,1.01-0.4,2.01-1.41,2.24c-3.75,0.85-7.08,2.21-9.9,4.04
					C323.63,424.29,323.28,424.39,322.93,424.39z M344.75,418.9c-1.01,0-1.85-0.81-1.87-1.83c-0.03-1.03,0.79-1.89,1.83-1.92
					c3.84-0.1,7.66-0.17,11.44-0.24c1.21,0.03,1.89,0.81,1.9,1.84c0.02,1.04-0.81,1.89-1.84,1.9c-3.76,0.06-7.57,0.14-11.4,0.24
					C344.78,418.9,344.77,418.9,344.75,418.9z M401.85,418.63c-0.01,0-0.02,0-0.03,0c-3.42-0.05-7.25-0.08-11.41-0.11
					c-1.04-0.01-1.87-0.85-1.86-1.88s0.98-1.77,1.88-1.86c4.16,0.03,8.01,0.06,11.44,0.11c1.03,0.01,1.86,0.86,1.85,1.9
					C403.71,417.81,402.88,418.63,401.85,418.63z M367.59,418.54c-1.03,0-1.87-0.83-1.87-1.86c-0.01-1.03,0.82-1.88,1.86-1.89
					c3.93-0.03,7.76-0.05,11.44-0.05c1.04,0,1.87,0.84,1.87,1.87c0,1.04-0.84,1.87-1.87,1.87c-3.67,0-7.49,0.01-11.41,0.05
					C367.6,418.54,367.6,418.54,367.59,418.54z"/>
			</g>
			<g>
				<path class="st8" d="M418.96,418.95c-0.02,0-0.03,0-0.05,0c0,0-2.02-0.05-5.6-0.13c-1.03-0.02-1.86-0.88-1.84-1.91
					c0.02-1.03,0.98-1.76,1.91-1.84c3.59,0.07,5.62,0.13,5.62,0.13c1.03,0.03,1.85,0.89,1.82,1.92
					C420.8,418.14,419.97,418.95,418.96,418.95z"/>
			</g>
		</g>
		<g>
			<g>
				<path class="st8" d="M882.17,894.89c-1.02,0-1.85-0.81-1.87-1.83c-0.08-3.55-0.14-5.59-0.14-5.59c-0.03-1.03,0.78-1.9,1.82-1.93
					c0.96,0.01,1.9,0.78,1.93,1.82c0,0,0.06,2.05,0.14,5.63c0.02,1.03-0.8,1.89-1.83,1.91C882.2,894.89,882.18,894.89,882.17,894.89
					z"/>
			</g>
			<g>
				<path class="st8" d="M852.41,978.68c-2.6,0-4.28-0.23-4.35-0.23l-4.89,0.02c-1.04,0-1.87-0.84-1.87-1.87
					c0-1.04,0.84-1.87,1.87-1.87h5.15c0.33,0.02,2.59,0.32,5.9,0.18c1.03-0.03,1.91,0.76,1.95,1.79c0.05,1.03-0.76,1.91-1.79,1.95
					C853.67,978.67,853.01,978.68,852.41,978.68z M832.03,978.46H820.9c-1.04,0-1.87-0.84-1.87-1.87c0-1.04,0.84-1.87,1.87-1.87
					h11.13c1.04,0,1.87,0.84,1.87,1.87C833.9,977.62,833.06,978.46,832.03,978.46z M809.76,978.46h-11.13
					c-1.04,0-1.87-0.84-1.87-1.87c0-1.04,0.84-1.87,1.87-1.87h11.13c1.04,0,1.87,0.84,1.87,1.87
					C811.64,977.62,810.8,978.46,809.76,978.46z M787.5,978.46h-11.13c-1.04,0-1.87-0.84-1.87-1.87c0-1.04,0.84-1.87,1.87-1.87
					h11.13c1.04,0,1.87,0.84,1.87,1.87C789.38,977.62,788.54,978.46,787.5,978.46z M765.24,978.46h-11.13
					c-1.04,0-1.87-0.84-1.87-1.87c0-1.04,0.84-1.87,1.87-1.87h11.13c1.04,0,1.87,0.84,1.87,1.87
					C767.11,977.62,766.27,978.46,765.24,978.46z M742.98,978.46h-11.13c-1.04,0-1.87-0.84-1.87-1.87c0-1.04,0.84-1.87,1.87-1.87
					h11.13c1.04,0,1.87,0.84,1.87,1.87C744.85,977.62,744.01,978.46,742.98,978.46z M720.71,978.46h-11.13
					c-1.04,0-1.87-0.84-1.87-1.87c0-1.04,0.84-1.87,1.87-1.87h11.13c1.04,0,1.87,0.84,1.87,1.87
					C722.59,977.62,721.75,978.46,720.71,978.46z M698.45,978.46h-11.13c-1.04,0-1.87-0.84-1.87-1.87c0-1.04,0.84-1.87,1.87-1.87
					h11.13c1.04,0,1.87,0.84,1.87,1.87C700.32,977.62,699.49,978.46,698.45,978.46z M676.19,978.46h-11.13
					c-1.04,0-1.87-0.84-1.87-1.87c0-1.04,0.84-1.87,1.87-1.87h11.13c1.04,0,1.87,0.84,1.87,1.87
					C678.06,977.62,677.22,978.46,676.19,978.46z M653.92,978.46h-11.13c-1.04,0-1.87-0.84-1.87-1.87c0-1.04,0.84-1.87,1.87-1.87
					h11.13c1.04,0,1.87,0.84,1.87,1.87C655.8,977.62,654.96,978.46,653.92,978.46z M631.66,978.46h-11.13
					c-1.04,0-1.87-0.84-1.87-1.87c0-1.04,0.84-1.87,1.87-1.87h11.13c1.04,0,1.87,0.84,1.87,1.87
					C633.53,977.62,632.7,978.46,631.66,978.46z M609.4,978.46h-11.13c-1.04,0-1.87-0.84-1.87-1.87c0-1.04,0.84-1.87,1.87-1.87
					h11.13c1.04,0,1.87,0.84,1.87,1.87C611.27,977.62,610.43,978.46,609.4,978.46z M587.13,978.46H576c-1.04,0-1.87-0.84-1.87-1.87
					c0-1.04,0.84-1.87,1.87-1.87h11.13c1.04,0,1.87,0.84,1.87,1.87C589.01,977.62,588.17,978.46,587.13,978.46z M564.87,978.46
					h-11.13c-1.04,0-1.87-0.84-1.87-1.87c0-1.04,0.84-1.87,1.87-1.87h11.13c1.04,0,1.87,0.84,1.87,1.87
					C566.74,977.62,565.91,978.46,564.87,978.46z M542.61,978.46h-11.13c-1.04,0-1.87-0.84-1.87-1.87c0-1.04,0.84-1.87,1.87-1.87
					h11.13c1.04,0,1.87,0.84,1.87,1.87C544.48,977.62,543.64,978.46,542.61,978.46z M520.35,978.46h-11.13
					c-1.04,0-1.87-0.84-1.87-1.87c0-1.04,0.84-1.87,1.87-1.87h11.13c1.04,0,1.87,0.84,1.87,1.87
					C522.22,977.62,521.38,978.46,520.35,978.46z M498.08,978.46h-11.13c-1.04,0-1.87-0.84-1.87-1.87c0-1.04,0.84-1.87,1.87-1.87
					h11.13c1.04,0,1.87,0.84,1.87,1.87C499.95,977.62,499.12,978.46,498.08,978.46z M475.83,977.71c-0.1,0-0.19-0.01-0.29-0.02
					c-4.35-0.68-8.11-1.76-11.19-3.19c-0.94-0.44-1.34-1.55-0.91-2.49c0.43-0.94,1.54-1.34,2.49-0.91
					c2.76,1.28,6.19,2.25,10.19,2.88c1.02,0.16,1.72,1.12,1.56,2.14C477.53,977.05,476.73,977.71,475.83,977.71z M865.21,976.62
					c-0.77,0-1.49-0.48-1.77-1.25c-0.35-0.98,0.17-2.05,1.14-2.39c3.47-1.23,6.4-3.01,8.73-5.31c0.74-0.73,1.92-0.72,2.65,0.01
					c0.73,0.74,0.72,1.92-0.01,2.65c-2.72,2.69-6.13,4.77-10.12,6.18C865.62,976.58,865.41,976.62,865.21,976.62z M457.19,967.27
					c-0.74,0-1.44-0.44-1.73-1.16c-0.4-0.98-0.68-2.02-0.83-3.1l-0.02-8.64c0-1.04,0.84-1.87,1.87-1.87s1.87,0.84,1.87,1.87v8.38
					c0.09,0.51,0.28,1.24,0.56,1.93c0.39,0.96-0.07,2.05-1.02,2.44C457.67,967.22,457.43,967.27,457.19,967.27z M880.37,961.48
					c-0.2,0-0.4-0.03-0.59-0.1c-0.98-0.33-1.51-1.39-1.18-2.37c0.93-2.8,1.46-5.99,1.56-9.49l0.03-0.92
					c0.03-1.03,0.97-1.84,1.93-1.82c1.03,0.03,1.85,0.89,1.82,1.93l-0.03,0.92c-0.12,3.87-0.71,7.42-1.76,10.56
					C881.88,960.98,881.15,961.48,880.37,961.48z M882.3,939.4c-0.01,0-0.02,0-0.03,0c-1.03-0.02-1.86-0.87-1.84-1.9
					c0.06-3.79,0.1-7.52,0.12-11.11c0.01-1.03,0.84-1.86,1.87-1.86c0,0,0.01,0,0.01,0c1.04,0.01,1.87,0.85,1.86,1.88
					c-0.02,3.61-0.06,7.34-0.12,11.15C884.16,938.58,883.33,939.4,882.3,939.4z M882.44,917.14c-1.03,0-1.87-0.83-1.87-1.87
					c-0.01-4.03-0.05-7.77-0.09-11.12c-0.01-1.03,0.82-1.88,1.85-1.9c0.89-0.06,1.88,0.82,1.9,1.85c0.04,3.36,0.07,7.11,0.09,11.15
					C884.32,916.29,883.48,917.14,882.44,917.14C882.44,917.14,882.44,917.14,882.44,917.14z"/>
			</g>
			<g>
				<path class="st8" d="M456.49,945.03c-1.04,0-1.87-0.84-1.87-1.87v-5.62c0-1.04,0.84-1.87,1.87-1.87s1.87,0.84,1.87,1.87v5.62
					C458.37,944.19,457.53,945.03,456.49,945.03z"/>
			</g>
		</g>
	</g>
	<g id="Button_1_">
		<path class="st8" d="M640.17,461.26h-215.9c-24.55,0-44.64-20.09-44.64-44.64v0c0-24.55,20.09-44.64,44.64-44.64h215.9
			c24.55,0,44.64,20.09,44.64,44.64v0C684.82,441.17,664.73,461.26,640.17,461.26z"/>
		<g>
			<g>
				<path class="st3" d="M634.4,396.92c0.9-0.09,1.81-0.13,2.71-0.11c11.96,0.25,21.5,10.18,21.25,22.15
					c-0.25,11.96-10.18,21.49-22.15,21.25l0.11-5.2c9.1,0.19,16.65-7.06,16.84-16.15c0.19-9.1-7.06-16.65-16.15-16.84
					c-0.68-0.01-1.38,0.01-2.07,0.09L634.4,396.92z"/>
			</g>
			<g>
				<polygon class="st3" points="629.2,437.46 637.46,442.46 637.66,432.81 				"/>
			</g>
			<g>
				<path class="st3" d="M626.01,439.83c-0.9,0.09-1.81,0.13-2.71,0.11c-11.96-0.25-21.5-10.18-21.25-22.15
					c0.25-11.96,10.18-21.49,22.15-21.25l-0.11,5.2c-9.1-0.19-16.65,7.06-16.84,16.15c-0.19,9.1,7.06,16.65,16.15,16.84
					c0.68,0.01,1.38-0.01,2.07-0.09L626.01,439.83z"/>
			</g>
			<g>
				<polygon class="st3" points="631.21,399.29 622.96,394.3 622.76,403.94 				"/>
			</g>
		</g>
	</g>
	<g id="Laptop_1_">
		<g>
			<g>
				<path class="st4" d="M1497.18,940.26c-1.3,0.65-3.33,1.02-6.3,1.02c-79.86-0.01-159.68-0.03-239.55,0.19
					c-40,0.11-80-0.18-120-0.09c-20.2,0.04-40.4,0.19-60.6,0.52c-10.1,0.17-20.2,0.39-30.3,0.67c-7.43,0.21-16.44,1.58-23.51-1.51
					c-2.41-1.05-4.69-2.46-5.65-5.06c-0.15-0.61-0.19-1.23-0.12-1.86c0.78-5.38,9.03-14.42,12.27-18.87
					c6.65-9.15,13.45-19.1,25.38-22.27c6.94-1.84,14.25-1.81,21.46-1.77c126.33,0,252.66,0.7,378.99,1.09
					c7.92,0.02,17.7,1.19,23.21,7.24c7,7.68,13.17,16,18.84,24.62C1494.69,929.33,1502.88,937.43,1497.18,940.26z"/>
				<g>
					<path class="st5" d="M1431.66,897.73h-356.05c-24.73,0-44.96-20.23-44.96-44.96V606.62c0-24.73,20.23-44.96,44.96-44.96h356.05
						c24.73,0,44.96,20.23,44.96,44.96v246.14C1476.62,877.5,1456.39,897.73,1431.66,897.73z"/>
					<path class="st6" d="M1076.22,576.27c-19.27,0-35.04,15.77-35.04,35.04v183.66c114.04-68.44,225.58-140.76,333.28-218.69
						H1076.22z"/>
					<path class="st7" d="M1429.13,576.27h-54.66c-107.71,77.93-219.24,150.26-333.28,218.69v39.7c0,19.27,15.77,35.04,35.04,35.04
						h352.91c19.27,0,35.04-15.77,35.04-35.04V611.31C1464.17,592.04,1448.4,576.27,1429.13,576.27z"/>
					<path class="st7" d="M1277.19,882.4h-31.28c-0.76,0-1.38-0.62-1.38-1.38l0,0c0-0.76,0.62-1.38,1.38-1.38h31.28
						c0.76,0,1.38,0.62,1.38,1.38l0,0C1278.58,881.78,1277.95,882.4,1277.19,882.4z"/>
					<circle class="st7" cx="1073.18" cy="569.84" r="3.11"/>
					<circle class="st3" cx="1086.58" cy="569.84" r="3.11"/>
					<circle class="st8" cx="1100.1" cy="569.84" r="3.11"/>
				</g>
			</g>
			<g>
				<path class="st7" d="M1064.97,914.21h-10.52c-2.19,0-3.98-1.79-3.98-3.98v0c0-2.19,1.79-3.98,3.98-3.98h10.52
					c2.19,0,3.98,1.79,3.98,3.98v0C1068.96,912.42,1067.16,914.21,1064.97,914.21z"/>
				<path class="st7" d="M1095.72,914.21h-10.52c-2.19,0-3.98-1.79-3.98-3.98v0c0-2.19,1.79-3.98,3.98-3.98h10.52
					c2.19,0,3.98,1.79,3.98,3.98v0C1099.7,912.42,1097.91,914.21,1095.72,914.21z"/>
				<path class="st7" d="M1126.47,914.21h-10.52c-2.19,0-3.98-1.79-3.98-3.98v0c0-2.19,1.79-3.98,3.98-3.98h10.52
					c2.19,0,3.98,1.79,3.98,3.98v0C1130.45,912.42,1128.66,914.21,1126.47,914.21z"/>
				<path class="st7" d="M1157.22,914.21h-10.52c-2.19,0-3.98-1.79-3.98-3.98v0c0-2.19,1.79-3.98,3.98-3.98h10.52
					c2.19,0,3.98,1.79,3.98,3.98v0C1161.2,912.42,1159.41,914.21,1157.22,914.21z"/>
				<path class="st7" d="M1187.97,914.21h-10.52c-2.19,0-3.98-1.79-3.98-3.98v0c0-2.19,1.79-3.98,3.98-3.98h10.52
					c2.19,0,3.98,1.79,3.98,3.98v0C1191.95,912.42,1190.16,914.21,1187.97,914.21z"/>
				<path class="st7" d="M1218.72,914.21h-10.52c-2.19,0-3.98-1.79-3.98-3.98v0c0-2.19,1.79-3.98,3.98-3.98h10.52
					c2.19,0,3.98,1.79,3.98,3.98v0C1222.7,912.42,1220.91,914.21,1218.72,914.21z"/>
				<path class="st7" d="M1249.46,914.21h-10.52c-2.19,0-3.98-1.79-3.98-3.98v0c0-2.19,1.79-3.98,3.98-3.98h10.52
					c2.19,0,3.98,1.79,3.98,3.98v0C1253.45,912.42,1251.66,914.21,1249.46,914.21z"/>
				<path class="st7" d="M1280.21,914.21h-10.52c-2.19,0-3.98-1.79-3.98-3.98v0c0-2.19,1.79-3.98,3.98-3.98h10.52
					c2.19,0,3.98,1.79,3.98,3.98v0C1284.2,912.42,1282.4,914.21,1280.21,914.21z"/>
				<path class="st7" d="M1310.96,914.21h-10.52c-2.19,0-3.98-1.79-3.98-3.98v0c0-2.19,1.79-3.98,3.98-3.98h10.52
					c2.19,0,3.98,1.79,3.98,3.98v0C1314.95,912.42,1313.15,914.21,1310.96,914.21z"/>
				<path class="st7" d="M1341.71,914.21h-10.52c-2.19,0-3.98-1.79-3.98-3.98v0c0-2.19,1.79-3.98,3.98-3.98h10.52
					c2.19,0,3.98,1.79,3.98,3.98v0C1345.7,912.42,1343.9,914.21,1341.71,914.21z"/>
				<path class="st7" d="M1372.46,914.21h-10.52c-2.19,0-3.98-1.79-3.98-3.98v0c0-2.19,1.79-3.98,3.98-3.98h10.52
					c2.19,0,3.98,1.79,3.98,3.98v0C1376.44,912.42,1374.65,914.21,1372.46,914.21z"/>
				<path class="st7" d="M1403.21,914.21h-10.52c-2.19,0-3.98-1.79-3.98-3.98v0c0-2.19,1.79-3.98,3.98-3.98h10.52
					c2.19,0,3.98,1.79,3.98,3.98v0C1407.19,912.42,1405.4,914.21,1403.21,914.21z"/>
				<path class="st7" d="M1433.96,914.21h-10.52c-2.19,0-3.98-1.79-3.98-3.98v0c0-2.19,1.79-3.98,3.98-3.98h10.52
					c2.19,0,3.98,1.79,3.98,3.98v0C1437.94,912.42,1436.15,914.21,1433.96,914.21z"/>
			</g>
		</g>
		<g>
			<path class="st5" d="M1430.02,625.43h-82.64c-3.77,0-6.85-3.08-6.85-6.85l0,0c0-3.77,3.08-6.85,6.85-6.85h82.64
				c3.77,0,6.85,3.08,6.85,6.85l0,0C1436.87,622.35,1433.79,625.43,1430.02,625.43z"/>
			<path class="st5" d="M1430.02,656.8h-82.64c-3.77,0-6.85-3.08-6.85-6.85l0,0c0-3.77,3.08-6.85,6.85-6.85h82.64
				c3.77,0,6.85,3.08,6.85,6.85l0,0C1436.87,653.72,1433.79,656.8,1430.02,656.8z"/>
		</g>
	</g>
	<g id="Tablet_1_">
		<g>
			<g>
				<g>
					<path class="st5" d="M578.4,638.91v261.73c0,20.29-16.6,36.89-36.89,36.89H373.4c-20.29,0-36.89-16.6-36.89-36.89V638.91
						c0-20.29,16.6-36.89,36.89-36.89h168.11C561.8,602.01,578.4,618.62,578.4,638.91z"/>
					<path class="st7" d="M350.29,899.83c0,3.11,0.59,6.08,1.61,8.85c3.62,9.79,13.01,16.83,23.98,16.83h134.11h28.99
						c14.07,0,25.59-11.56,25.59-25.68V641.16c0-7.85-3.57-14.91-9.15-19.63c-65.65,62.99-135.39,121.88-205.13,180.78V899.83z"/>
					<path class="st6" d="M510.13,615.48H375.87c-14.07,0-25.59,11.56-25.59,25.68v40.07v121.08
						c69.74-58.89,139.48-117.79,205.13-180.78c-4.46-3.77-10.19-6.05-16.44-6.05H510.13z"/>
				</g>
			</g>
			<circle class="st8" cx="457.45" cy="930.03" r="4.71"/>
		</g>
		<g>
			<path class="st5" d="M528.5,667.74h-82.64c-3.77,0-6.85-3.08-6.85-6.85l0,0c0-3.77,3.08-6.85,6.85-6.85h82.64
				c3.77,0,6.85,3.08,6.85,6.85l0,0C535.36,664.66,532.27,667.74,528.5,667.74z"/>
			<path class="st5" d="M528.5,699.11h-82.64c-3.77,0-6.85-3.08-6.85-6.85l0,0c0-3.77,3.08-6.85,6.85-6.85h82.64
				c3.77,0,6.85,3.08,6.85,6.85l0,0C535.36,696.03,532.27,699.11,528.5,699.11z"/>
		</g>
	</g>
	<g id="Mobile_1_">
		<g>
			<path class="st6" d="M357.1,686.48h-89.01c-10.12,0-18.4,8.28-18.4,18.4v89.28c39.21-35.2,79.17-69.54,120.85-101.77
				C367.17,688.78,362.4,686.48,357.1,686.48z"/>
			<path class="st7" d="M370.53,692.4c-41.67,32.22-81.64,66.57-120.85,101.77v78.18v50.4c0,10.12,8.28,18.4,18.4,18.4h89.01
				c10.12,0,18.4-8.28,18.4-18.4V704.89c0-4.73-1.82-9.04-4.78-12.31C370.66,692.51,370.59,692.46,370.53,692.4z"/>
			<path class="st4" d="M357.1,686.48h-89.01c-10.12,0-18.4,8.28-18.4,18.4v217.86c0,10.12,8.28,18.4,18.4,18.4h89.01
				c10.12,0,18.4-8.28,18.4-18.4V704.88C375.5,694.76,367.22,686.48,357.1,686.48z M367.51,898.98c0,10.12-8.28,18.4-18.4,18.4
				h-73.04c-10.12,0-18.4-8.28-18.4-18.4V713.44c0-10.12,8.28-18.4,18.4-18.4h73.04c10.12,0,18.4,8.28,18.4,18.4V898.98z"/>
			<path class="st7" d="M324.44,692.31h-23.7c-0.58,0-1.05-0.47-1.05-1.05l0,0c0-0.58,0.47-1.05,1.05-1.05h23.7
				c0.58,0,1.05,0.47,1.05,1.05l0,0C325.49,691.84,325.02,692.31,324.44,692.31z"/>
			<circle class="st8" cx="312.59" cy="928.47" r="6.53"/>
		</g>
		<g>
			<path class="st3" d="M353.91,860.86h-82.64c-3.77,0-6.85-3.08-6.85-6.85l0,0c0-3.77,3.08-6.85,6.85-6.85h82.64
				c3.77,0,6.85,3.08,6.85,6.85l0,0C360.76,857.78,357.68,860.86,353.91,860.86z"/>
			<path class="st3" d="M353.91,892.24h-82.64c-3.77,0-6.85-3.08-6.85-6.85v0c0-3.77,3.08-6.85,6.85-6.85h82.64
				c3.77,0,6.85,3.08,6.85,6.85v0C360.76,889.15,357.68,892.24,353.91,892.24z"/>
		</g>
	</g>
</g>
</svg>
