<svg xmlns="http://www.w3.org/2000/svg" width="16" height="16" viewBox="0 0 16 16"><defs><style>.a{fill:#fff;}</style></defs><path class="a" d="M136.165,134.854h7.708a7.419,7.419,0,0,1,.128,1.333,8.3,8.3,0,0,1-.967,4.036A6.91,6.91,0,0,1,140.274,143a8.287,8.287,0,0,1-4.109,1,8.336,8.336,0,0,1-5.783-2.333,7.992,7.992,0,0,1-1.738-2.552,7.863,7.863,0,0,1,0-6.229,7.992,7.992,0,0,1,1.738-2.552A8.336,8.336,0,0,1,136.165,128a7.825,7.825,0,0,1,5.475,2.094l-2.222,2.094a4.545,4.545,0,0,0-3.253-1.24,4.955,4.955,0,0,0-2.536.677,5.039,5.039,0,0,0-1.844,1.839,5.068,5.068,0,0,0,0,5.073,5.04,5.04,0,0,0,1.844,1.839,4.955,4.955,0,0,0,2.536.677,5.522,5.522,0,0,0,1.7-.25,4.324,4.324,0,0,0,1.276-.625,4.571,4.571,0,0,0,.872-.854,3.963,3.963,0,0,0,.548-.906,3.768,3.768,0,0,0,.239-.812h-4.635Z" transform="translate(-128 -128)"/></svg>