<svg xmlns="http://www.w3.org/2000/svg" xmlns:xlink="http://www.w3.org/1999/xlink" width="557" height="399" viewBox="0 0 557 399">
  <defs>
    <clipPath id="clip-login-img">
      <rect width="557" height="399"/>
    </clipPath>
  </defs>
  <g id="login-img" clip-path="url(#clip-login-img)">
    <g id="Background" transform="translate(165.245 220.821)">
      <g id="Chair_2" data-name="Chair 2" transform="translate(0)">
        <g id="Group_299" data-name="Group 299" transform="translate(0 5.849)">
          <path id="Path_209" data-name="Path 209" d="M12048.1,5636.678c-2.308-2.3-1.188-18.463-.827-21.058l4.345-31.2,8.814-63.275,1.009-7.233a8.544,8.544,0,0,1,8.841-6.786,6.614,6.614,0,0,1,6.3,7.8c-8.764,39.717-19.409,79.511-25.895,119.437a3.233,3.233,0,0,1-.554,1.566C12049.265,5637.022,12048.6,5637.177,12048.1,5636.678Z" transform="translate(-12046.683 -5507.112)" fill="#e3e5fc"/>
          <path id="Path_210" data-name="Path 210" d="M12227.015,5636.594c2.256-2.369.771-18.494.351-21.075l-5.053-31.055-10.249-62.985-1.171-7.2a8.466,8.466,0,0,0-8.993-6.514,6.674,6.674,0,0,0-6.123,7.985c9.665,39.437,21.211,78.893,28.6,118.608a3.223,3.223,0,0,0,.589,1.549C12225.858,5636.974,12226.523,5637.108,12227.015,5636.594Z" transform="translate(-12128.186 -5507.449)" fill="#e3e5fc"/>
        </g>
        <rect id="Rectangle_327" data-name="Rectangle 327" width="97.885" height="24.593" rx="12.297" transform="translate(0.452)" fill="#a7adff"/>
      </g>
    </g>
    <g id="Characters" transform="translate(185.789 30.535)">
      <g id="Man_4" data-name="Man 4" transform="translate(0)">
        <g id="Head" transform="translate(47.982)">
          <path id="Neck" d="M2954.477,4970.551l-7.5,22.646-19.882,2.033s15.133-12.878,17.144-27.471S2954.477,4970.551,2954.477,4970.551Z" transform="translate(-2927.095 -4903.815)" fill="#d4a79a"/>
          <path id="Face" d="M3003.365,4886.233s2.5,6.26-5.659,21.136-18.073,26.777-22.609,24.511c-12.542-6.266-14.64-16.91-17.045-26.209-2.95-11.4,14.81-32.418,14.81-32.418L2985,4870.43Z" transform="translate(-2944.029 -4853.223)" fill="#eac2ab"/>
          <path id="Hair" d="M3006.808,4864.639c.131-.225.256-.454.377-.691a26.879,26.879,0,0,0,2.365-16.571c-1.78-9.094-10.912-10.059-18.586-8.412-3.507.751-6.786,3.042-10.5,1.854-2.767-.885-4.165-3.481-6.271-5.248a15.9,15.9,0,0,0-8.587-3.544c-6.531-.683-12.542,2.7-16.12,8.039a14.776,14.776,0,0,0-2.557,7.373,2.483,2.483,0,0,0-2.7-1c-9.114,1.773-8.593,15.007-8.189,21.951.337,5.8.01,13.011,3.542,17.978,1.409,1.979,5.1,5.133,7.345,2.934,2-1.964.439-7.976.974-10.552.75-3.614.421-20.953,18.866-19.648,7.331.519,12.5,13.059,19.393,15.238C2993.179,4876.556,3002.9,4871.356,3006.808,4864.639Z" transform="translate(-2931.944 -4831.939)" fill="#4b369d"/>
          <path id="Ear" d="M2960.89,4923.667s-5.116-5.676-4.483,3.053,5.223,10.489,5.223,10.489Z" transform="translate(-2943.273 -4881.657)" fill="#eac2ab"/>
        </g>
        <g id="Leg" transform="translate(23.44 169.16)">
          <path id="Skin" d="M3174.07,5398.44l11.832,29.245-8.781,5.214L3166.48,5401.6S3170.889,5398.024,3174.07,5398.44Z" transform="translate(-3034.921 -5314.326)" fill="#eac2ab"/>
          <path id="Shoe" d="M3230.766,5459.431s-6.556,3.985-19.812,7.8-28.167,7.419-31.279,5.854-8.132-19.26-3.649-20.177,7.474,5.627,14.265-2.151c5.816-6.665,13.026,2.179,25.3,2.419S3232.826,5453.5,3230.766,5459.431Z" transform="translate(-3039.214 -5341.903)" fill="#f3aa02"/>
          <path id="Leg-2" data-name="Leg" d="M2922.143,5210.482c5.974.673,20.9,7.654,26.406,9.721,11.809,4.434,29.536,29.963,36.723,39,7.927,9.963,15.462,13.446,22.591,23.832,4.987,7.2,14.771,9.063,19.818,15.63,3.847,5,2.077,5.057-3.819,8.258-8.086,4.391-31.97,27.562-35.648,13.4-1.373-5.288-11.168-16.509-14.736-20.921-8.373-10.358-5.982-26.236-13.16-37.207-3.5-5.345-6.01-11.618-12.1-14.937-5.114-2.785-11.611-2.818-17.706-2.76-8.406.081-13.126-14.525-21.532-14.444-11.081.107-22.548,10.865-31.435,5.3-14.939-9.358,5.294-10.163,13.651-10.487C2907.745,5224.224,2905.7,5208.629,2922.143,5210.482Z" transform="translate(-2872.197 -5210.33)" fill="#4b369d"/>
        </g>
        <g id="Leg-3" data-name="Leg" transform="translate(1.294 165.717)">
          <path id="Skin-2" data-name="Skin" d="M3099.08,5440.329l14.106,28.2-8.943,5.685-12.968-30.3S3095.71,5440.111,3099.08,5440.329Z" transform="translate(-2971.189 -5334.059)" fill="#eac2ab"/>
          <path id="Shoe-2" data-name="Shoe" d="M3157.991,5505.959s-7.2,3.392-21.419,6.062-30.167,4.994-33.316,3.19-7.044-19.687-2.263-20.223,7.414,6.175,15.152-.941c6.629-6.1,13.515,3.229,26.388,4.482S3160.616,5500.277,3157.991,5505.959Z" transform="translate(-2975.325 -5362.634)" fill="#fdc510"/>
          <path id="Leg-4" data-name="Leg" d="M2881.587,5203.261c5.974.856,11.484,3.34,16.987,5.963,11.809,5.634,21.686,21.042,28.874,32.517q11.891,18.984,22.588,38.782c2.7,5.005,3.814,10.612,6.328,15.655,4.158,8.344,25.648,19.748,11.657,29.182-8.979,6.054-23.165,3.139-33.288,3.1a1.8,1.8,0,0,1-2.164-2.044c-1.4-13.172-2.745-24.192-8.711-36.125-8.373-13.157-14.186-22.3-21.365-36.238-3.5-6.789-3.258-12.363-9.348-16.579-5.115-3.539-10.388-2.48-16.483-2.407-8.406.1-15.618-.1-24.024,0-11.082.137-18.32-.223-24.311-9.87-11.478-18.483-3.314-18.15,5.043-18.562C2849.919,5205.82,2865.141,5200.907,2881.587,5203.261Z" transform="translate(-2822.659 -5202.628)" fill="#5a54ff"/>
        </g>
        <path id="Arm" d="M2972.067,5043.024s7.009,26.8,9.72,27.39c2.271.5,5.046.01,7.335-.095,4.7-.215,9.395-.517,14.088-.837,8.121-.554,16.489-.751,24.534-2.069,4.917-.8,13.935-2.009,17.66-5.613,5.055-4.89,14.068,6.346,16.621,9.339.369.433.726,1.122.3,1.5a1.015,1.015,0,0,1-.733.181c-1.823-.079-3.433-1.147-4.937-2.179a20.475,20.475,0,0,1,3.34,5.167c-1.662-.634-3.1-1.749-4.744-2.432-6.6-2.747-11.953,6.862-19.351,3.442-4.96-2.294-10.56-.723-15.717-.151q-6.969.775-13.949,1.445c-8.7.848-17.8,2.324-26.558,1.987a6.03,6.03,0,0,1-1.666-.135c-2.753-.928-8-12.734-11.9-23.025-2.458-6.492-5.647-13.476-3.361-23.636C2964.848,5023.989,2974.637,5028.2,2972.067,5043.024Z" transform="translate(-2898.394 -4940.553)" fill="#eac2ab"/>
        <g id="Body" transform="translate(0 76.289)">
          <path id="Path_227" data-name="Path 227" d="M2881.566,5047.6a107,107,0,0,1,4.8-14.729c2.949-7.209,8.238-17.02,3.724-24.735a9.854,9.854,0,0,0-2.389-3c-11.793-9.059-30.089,8.216-37.719,17.259-9.612,11.394-9.95,16.261-14.024,29.654-4.524,14.871-8.585,30.448-15.434,44.606-.74,1.528-1.347,3.616.226,4.641a4.667,4.667,0,0,0,2.541.516c6.118-.008,11.984-1.688,17.748-3.306,9.129-2.562,8.725-3.566,18.282-1.9,3.749.655,7.315-.464,11.114-.5a26.729,26.729,0,0,0,5.462-.813c6.212-2.89-1.364-4.587-1.672-5.347C2868.5,5075.807,2877.8,5062.824,2881.566,5047.6Z" transform="translate(-2819.764 -5002.587)" fill="#d7384e"/>
          <path id="Path_228" data-name="Path 228" d="M2961.812,5043.556s1.123-32.425-13.409-30.041-8.515,38.929-8.515,38.929l23.744-4.223Z" transform="translate(-2885.503 -5008.561)" fill="#f44e4e"/>
        </g>
      </g>
    </g>
    <g id="Background-2" data-name="Background" transform="translate(237.09 182.885)">
      <g id="Table" transform="translate(0 0)">
        <g id="Group_313" data-name="Group 313" transform="translate(34.221 0.575)">
          <path id="Path_215" data-name="Path 215" d="M11276.916,6418.017c-2.078-2.911-.324-24.368.129-27.822l5.453-41.536,11.057-84.246,1.264-9.629c.83-5.348,4.719-9.615,8.637-9.486s6.443,4.613,5.611,9.959c-9.99,53.064-21.76,106.336-29.607,159.548a5.879,5.879,0,0,1-.592,2.1C11278,6418.406,11277.367,6418.65,11276.916,6418.017Z" transform="translate(-11275.922 -6245.295)" fill="#e3e5fc"/>
          <g id="Group_312" data-name="Group 312" transform="translate(108.273)">
            <path id="Path_216" data-name="Path 216" d="M11563.2,6418.017c2.078-2.911.324-24.368-.128-27.822l-5.452-41.536-11.057-84.246-1.263-9.629c-.833-5.348-4.72-9.615-8.639-9.486s-6.444,4.613-5.611,9.959c9.991,53.064,21.759,106.336,29.607,159.548a5.879,5.879,0,0,0,.592,2.1C11562.115,6418.406,11562.749,6418.65,11563.2,6418.017Z" transform="translate(-11530.892 -6245.295)" fill="#e3e5fc"/>
          </g>
        </g>
        <rect id="Rectangle_338" data-name="Rectangle 338" width="239.831" height="8.798" rx="4.399" fill="#a7adff"/>
      </g>
    </g>
    <g id="UI" transform="translate(293.602 99.484)">
      <g id="Laptop_2" data-name="Laptop 2" transform="translate(0 0)">
        <rect id="Rectangle_262" data-name="Rectangle 262" width="86.392" height="4.004" rx="2.002" transform="translate(0 71.9)" fill="#4b369d"/>
        <rect id="Rectangle_263" data-name="Rectangle 263" width="86.392" height="4.004" rx="2.002" transform="translate(127.995 2.002) rotate(120)" fill="#4b369d"/>
      </g>
    </g>
    <g id="Background-3" data-name="Background" transform="translate(420.58 104.514)">
      <g id="Coffee" transform="translate(0)">
        <g id="Group_314" data-name="Group 314" transform="translate(0 38.158)">
          <path id="Path_217" data-name="Path 217" d="M10748.094,6566.769h-37.761c.484,3.219.956,6.48,1.448,9.75h34.169C10746.414,6571.095,10747.09,6566.769,10748.094,6566.769Z" transform="translate(-10710.333 -6566.769)" fill="#4b369d"/>
          <path id="Path_218" data-name="Path 218" d="M10720.485,6622.812a3.226,3.226,0,0,0,2.544.706c5.1-.117,10.208.208,15.311.182,4.82-.026,8.8.362,9.307-7.643.107-1.687.312-12.759,1.031-21.18h-34.17a243.2,243.2,0,0,0,4.848,25.411A5.65,5.65,0,0,0,10720.485,6622.812Z" transform="translate(-10713.06 -6585.126)" fill="#f3aa02"/>
        </g>
        <ellipse id="Ellipse_66" data-name="Ellipse 66" cx="5.967" cy="5.967" rx="5.967" ry="5.967" transform="translate(12.913 54.57)" fill="#fff"/>
        <path id="Path_219" data-name="Path 219" d="M10736.648,6490.394s-12.525-8.408-3.608-13.717,7.589-12.665,3.608-13.855,8.325-6.057,8.325-6.057-8.325,2.822-3.459,6.057,17.258,11.2,7.964,13.855,9.385,7.047,3.365,11.931S10736.648,6490.394,10736.648,6490.394Z" transform="translate(-10723.071 -6456.765)" fill="#e3e5fc"/>
      </g>
    </g>
    <g id="Nature" transform="translate(39 353.8)">
      <ellipse id="Ground_2" data-name="Ground 2" cx="237.128" cy="7.195" rx="237.128" ry="7.195" transform="translate(0)" fill="#e3e5fc"/>
    </g>
    <g id="Nature-2" data-name="Nature" transform="translate(439.461 254.366)">
      <g id="Plant_24" data-name="Plant 24" transform="translate(0)">
        <g id="Plant">
          <path id="Path_328" data-name="Path 328" d="M7250.406,9589.429c1.38-1.717,3.734-2.735,5.726-4.012s3.766-3.137,3.315-5.239c-.748-3.485-6.947-5.27-7.6-8.761-.746-3.992,6.067-5.764,7.652-9.457.9-2.107-.077-4.574-1.687-6.561a67.471,67.471,0,0,0-5.7-5.471c-2.3-2.214-4.208-4.81-4.548-7.575a6.239,6.239,0,0,1,4.343-6.711,32.816,32.816,0,0,1,5.7-.781c1.906-.263,3.9-1.01,4.418-2.476a5.474,5.474,0,0,0,.045-2.294c-.556-6.43,5.31-12.449,13.182-13.529-.465,1.516,2.084,2.905,4.01,2.571a7.385,7.385,0,0,0,4.261-2.951c1.078-1.272,2.272-2.638,4.164-3.053a11.117,11.117,0,0,1,4.767.383c1.22.283,2.633.72,3.025,1.68a2.187,2.187,0,0,1,.04,1.222c-.625,3.638-2.335,7.041-3.184,10.636s-.722,7.639,1.985,10.829c1.628,1.922,4.106,3.436,5.2,5.557,1.731,3.362-.594,6.876-2.974,9.723s-5,6.11-3.832,9.592c1.177,3.5,18.8,1.364,14.513,22.928-1.036,5.225-8.5-.341-7.662,4.957.352,2.238-4.732.229-5.225,2.4-.156.689,3.2,4.073,2.924,4.735-.937,2.291-3.82,2.321-1.584,4.174,1.169.966,2.744,1.787,3.161,3.057.751,2.28-2.732,3.722-5.639,3.813-2.428.074-2.944-6.893-4.961-5.747-2.37,1.349-4.885,6.637-16.5,5.159-4.8-.609-6.715-12.717-10.315-10.668C7253.181,9602.247,7243.263,9598.322,7250.406,9589.429Z" transform="translate(-7247.518 -9512.996)" fill="#e3e5fc"/>
          <g id="Group_342" data-name="Group 342" transform="translate(14.133 27.487)">
            <g id="Group_338" data-name="Group 338" transform="translate(11.024 0)">
              <rect id="Rectangle_345" data-name="Rectangle 345" width="69.942" height="0.68" transform="matrix(0.035, -0.999, 0.999, 0.035, 0, 69.9)" fill="#fff"/>
            </g>
            <g id="Group_339" data-name="Group 339" transform="translate(11.157 26.862)">
              <path id="Path_329" data-name="Path 329" d="M7387.321,9820.416l-.388-.557c1.052-.73,10.333-7.145,12.116-7.258l.043.68C7397.884,9813.355,7391.39,9817.59,7387.321,9820.416Z" transform="translate(-7386.933 -9812.602)" fill="#fff"/>
            </g>
            <g id="Group_340" data-name="Group 340" transform="translate(0 3.588)">
              <path id="Path_330" data-name="Path 330" d="M7337.01,9702.384c-4.519-6.172-12.029-16.691-11.562-17.822a.431.431,0,0,1,.337-.265l.1.673a.24.24,0,0,0,.2-.2c-.014,1.107,7.027,11.141,11.47,17.207Z" transform="translate(-7325.428 -9684.297)" fill="#fff"/>
            </g>
            <g id="Group_341" data-name="Group 341" transform="translate(12.853 0.606)">
              <path id="Path_331" data-name="Path 331" d="M7396.734,9676.556l-.456-.5c.343-.31,8.407-7.573,9.245-8.192l.4.548C7405.114,9669.007,7396.817,9676.48,7396.734,9676.556Z" transform="translate(-7396.278 -9667.859)" fill="#fff"/>
            </g>
          </g>
        </g>
        <g id="Plant-2" data-name="Plant" transform="translate(26.504 26.44)">
          <g id="Group_345" data-name="Group 345" transform="translate(25.458 8.337)">
            <g id="Group_344" data-name="Group 344">
              <g id="Group_343" data-name="Group 343">
                <path id="Path_332" data-name="Path 332" d="M7533.965,9704.705" transform="translate(-7533.965 -9704.705)" fill="none" stroke="#fff" stroke-linecap="round" stroke-miterlimit="10" stroke-width="1"/>
              </g>
            </g>
          </g>
          <path id="Path_333" data-name="Path 333" d="M7405.175,9687.989a4.556,4.556,0,0,1,2.128-2.794c1.556-.75,3.8-.44,5.567.295s3.27,1.862,4.985,2.757a2.489,2.489,0,0,0,1.507.381,1.665,1.665,0,0,0,1.067-.856c2.675-4.321,1.8-9.586,2.766-14.279a5.858,5.858,0,0,1,1.8-3.577c2.917-2.548,3.511-.735,6.3-3.624,1.949-2.018,3.128-6.291,5.986-7.295,5.912-2.078,3.471,9.52,3.321,12.26-.284,5.2,6.786,6.341,4.241,12.205-1.1,2.546-3.295,4.369-4.926,6.526-1.615,2.168-2.607,5.214-.665,7.509,1.266,1.494,3.767,2.7,3.624,4.481-.088,1.051-1.159,1.692-2.166,2.186a78.39,78.39,0,0,1-7.8,3.348,3.28,3.28,0,0,0-1.727,1.045c-.447.726-.016,1.712.264,2.615a7.728,7.728,0,0,1-2.937,8.539c-2.607,2.041-6.344,3.084-10.145,3.855a98.152,98.152,0,0,1-15.223,1.858c-15.256.051-7.95-10.176-6.52-14.1Q7400.749,9699.483,7405.175,9687.989Z" transform="translate(-7393.625 -9658.748)" fill="#fdc510"/>
          <g id="Group_346" data-name="Group 346" transform="translate(13.822 21.737)">
            <path id="Path_334" data-name="Path 334" d="M7470.158,9819.992a.327.327,0,0,1-.181-.053.338.338,0,0,1-.106-.468l25.645-40.738a.338.338,0,0,1,.468-.107.341.341,0,0,1,.107.47l-25.646,40.737A.338.338,0,0,1,7470.158,9819.992Z" transform="translate(-7469.818 -9778.573)" fill="#fff"/>
          </g>
          <g id="Group_347" data-name="Group 347" transform="translate(26.476 33.381)">
            <path id="Path_335" data-name="Path 335" d="M7541.845,9849.35a.343.343,0,0,1-.324-.234l-1.927-5.908a.34.34,0,0,1,.646-.211l1.927,5.908a.338.338,0,0,1-.217.428A.332.332,0,0,1,7541.845,9849.35Z" transform="translate(-7539.577 -9842.763)" fill="#fff"/>
          </g>
          <g id="Group_348" data-name="Group 348" transform="translate(32.096 32.099)">
            <path id="Path_336" data-name="Path 336" d="M7570.9,9837.83a.341.341,0,0,1-.079-.672l6.043-1.453a.34.34,0,0,1,.159.662l-6.042,1.452A.294.294,0,0,1,7570.9,9837.83Z" transform="translate(-7570.558 -9835.695)" fill="#fff"/>
          </g>
        </g>
        <g id="Plant-3" data-name="Plant" transform="translate(5.132 64.399)">
          <path id="Path_337" data-name="Path 337" d="M7276.141,9893.156a3.825,3.825,0,0,1-.067-2.942c.86-1.755,3.444-1.776,5.181-.878s3.14,2.415,4.988,3.053,4.476-.25,4.521-2.206a5,5,0,0,0-1.158-2.672,15.938,15.938,0,0,1-2.558-8c-.044-1.077.319-2.487,1.4-2.548a2.267,2.267,0,0,1,1.6.9l5.487,5.6c.4-5.3,1.071-11.182,5.1-14.651.75-.646,1.929-1.167,2.663-.5a2.079,2.079,0,0,1,.534,1.181c.656,3.39-.454,6.987.483,10.312a2.583,2.583,0,0,0,.732,1.324c1.824,1.511,4.188-2.282,6.483-1.684,1.491.39,1.859,2.454,1.258,3.875s-1.808,2.5-2.526,3.865-.735,3.378.613,4.127a3.941,3.941,0,0,0,2.111.3l6.709-.3-3.583,5.237a1.979,1.979,0,0,0-.5,1.533c.3,1.133,2.083.875,2.934,1.681.95.9.133,2.635-1.087,3.11s-2.583.174-3.893.11c-7.34-.35-12.547,4.5-19.937,1.624C7287.611,9902.257,7278.595,9899.994,7276.141,9893.156Z" transform="translate(-7275.806 -9868)" fill="#5a54ff"/>
          <g id="Group_349" data-name="Group 349" transform="translate(22.659 18.205)">
            <path id="Path_338" data-name="Path 338" d="M7400.97,9987.922h-.015a.255.255,0,0,1-.239-.269c.4-7.033,1.19-18.886,1.992-19.271a.255.255,0,0,1,.261.437c-.535.813-1.354,11.979-1.745,18.863A.255.255,0,0,1,7400.97,9987.922Z" transform="translate(-7400.716 -9968.357)" fill="#fff"/>
          </g>
          <g id="Group_350" data-name="Group 350" transform="translate(23.087 28.46)">
            <path id="Path_339" data-name="Path 339" d="M7403.329,10027.544a.254.254,0,0,1-.059-.5l9.076-2.146a.255.255,0,0,1,.117.5l-9.077,2.146A.231.231,0,0,1,7403.329,10027.544Z" transform="translate(-7403.073 -10024.889)" fill="#fff"/>
          </g>
          <g id="Group_351" data-name="Group 351" transform="translate(11.203 28.409)">
            <path id="Path_340" data-name="Path 340" d="M7349.386,10032.122a.259.259,0,0,1-.132-.037l-11.567-7a.255.255,0,1,1,.265-.437l11.566,7a.256.256,0,0,1-.132.474Z" transform="translate(-7337.564 -10024.608)" fill="#fff"/>
          </g>
          <g id="Group_352" data-name="Group 352" transform="translate(19.042 20.79)">
            <path id="Path_341" data-name="Path 341" d="M7385.358,9989.161a.255.255,0,0,1-.207-.106l-4.328-6.045a.254.254,0,1,1,.413-.3l4.329,6.045a.255.255,0,0,1-.207.4Z" transform="translate(-7380.774 -9982.606)" fill="#fff"/>
          </g>
        </g>
        <path id="Plant-4" data-name="Plant" d="M7564.524,10045.845a22.4,22.4,0,0,1,2.728-4.6,2.3,2.3,0,0,1,1.549-.965.419.419,0,0,1,.332.106.51.51,0,0,1,.1.3c.577,6.831-8.329,6.436-10.108.681a1.892,1.892,0,0,1-.084-1.094,1.284,1.284,0,0,1,1.631-.7,2.921,2.921,0,0,1,1.473,1.34,13.67,13.67,0,0,1,1.509,5.156,11.668,11.668,0,0,1,.793-6.895c.143-.318.419-.681.747-.563a.722.722,0,0,1,.344.361,5.094,5.094,0,0,1,.367,3.56A13.648,13.648,0,0,1,7564.524,10045.845Z" transform="translate(-7502.487 -9943.245)" fill="#978cff"/>
      </g>
    </g>
    <g id="Nature-3" data-name="Nature" transform="translate(46.303 142.88)">
      <g id="Plant_25" data-name="Plant 25">
        <path id="Plant-5" data-name="Plant" d="M8321.43,10055.224a7.828,7.828,0,0,1-1.939-3.809,1.348,1.348,0,0,1,.154-1.006,1.263,1.263,0,0,1,.777-.421c2.093-.447,4.057,1.085,5.567,2.6a53.3,53.3,0,0,1,7.093,8.821,13.89,13.89,0,0,1-1.577-7.792.349.349,0,0,1,.1-.238.32.32,0,0,1,.259-.037c.643.123,1.05.748,1.357,1.327a29.566,29.566,0,0,1,2.339,5.873c-.347-1.263.682-2.784,1.614-3.535,1.671-1.344,1.315.53.952,1.635-.355,1.08-2.718,5.312-4.4,4.367-.31-.174-.384-1.117-.639-1.421a3.248,3.248,0,0,0-1.687-.9,29.622,29.622,0,0,1-5.064-1.572A16.263,16.263,0,0,1,8321.43,10055.224Z" transform="translate(-8237.107 -9848.423)" fill="#a7adff"/>
        <path id="Plant-6" data-name="Plant" d="M8571.466,10090.9a27.228,27.228,0,0,1,.921-6.319,2.879,2.879,0,0,1,1.263-1.807.506.506,0,0,1,.413-.05.558.558,0,0,1,.241.277c3.7,7.089-6.23,11.073-10.76,5.743a2.126,2.126,0,0,1-.581-1.139,1.6,1.6,0,0,1,1.47-1.565,3.317,3.317,0,0,1,2.214.718,15.3,15.3,0,0,1,3.964,4.816,13.441,13.441,0,0,1-2.224-7.834c.013-.413.152-.942.564-.979a.812.812,0,0,1,.538.219,5.766,5.766,0,0,1,2,3.66A16.28,16.28,0,0,1,8571.466,10090.9Z" transform="translate(-8412.124 -9871.994)" fill="#f44e4e"/>
        <path id="Plant-7" data-name="Plant" d="M8039.4,10051a.665.665,0,0,1,.3.082,1.3,1.3,0,0,1,.516.927c.7,3.278.68,2.474.333,6.771.733-2.685.443-2.215,1.813-4.636a3.21,3.21,0,0,1,1.024-1.237c2.99-1.832.095,6.28-.412,7.213-1.875,3.452-5.526,4.308-9.066,3.035a11.789,11.789,0,0,1-7.186-6.7c-.1-.285-.173-.644.04-.858a.8.8,0,0,1,.584-.17,8.1,8.1,0,0,1,5.068,2.157c1.434,1.211,2.621,2.681,3.972,3.982.956.924,3.065.869,4.385,1.028,2.242.272,3.128-.6,5.074-1.745a2.754,2.754,0,0,1,1.382-.472,1.114,1.114,0,0,1,1.105.8,1.4,1.4,0,0,1-.171.848c-1.595,3.367-5.938,2.916-7.854.229-1.827-2.565-3-6.833-2.129-9.91C8038.36,10051.724,8038.849,10050.985,8039.4,10051Z" transform="translate(-8026.628 -9849.206)" fill="#fdc510"/>
        <g id="Tree" transform="translate(3.037)">
          <path id="Path_322" data-name="Path 322" d="M8121.112,9575.871a.466.466,0,0,1,.208.061.761.761,0,0,1,.333.573c.39,2,.4,1.512.033,4.083a6.723,6.723,0,0,1,1.4-2.725,2.029,2.029,0,0,1,.75-.709c2.139-1-.119,3.778-.5,4.322-1.409,2.012-3.979,2.4-6.409,1.516a7.868,7.868,0,0,1-4.812-4.272c-.061-.175-.1-.393.053-.515a.627.627,0,0,1,.412-.082,6.135,6.135,0,0,1,3.471,1.471c.963.775,1.747,1.7,2.65,2.529.64.588,2.111.627,3.026.768,1.555.24,2.2-.254,3.587-.877a2.123,2.123,0,0,1,.978-.235.774.774,0,0,1,.748.517.759.759,0,0,1-.145.5c-1.21,1.968-4.226,1.55-5.48-.131-1.2-1.605-1.893-4.211-1.191-6.03C8120.365,9576.271,8120.728,9575.845,8121.112,9575.871Z" transform="translate(-8091.072 -9507.701)" fill="#a7adff"/>
          <path id="Path_323" data-name="Path 323" d="M8048.05,9453.382c1.618-2.777,4.648-4.682,7.152-6.909s4.635-5.286,3.734-8.324c-1.494-5.044-10.1-6.647-11.463-11.716-1.562-5.795,7.37-9.565,8.989-15.309.923-3.278-.741-6.771-3.188-9.444s-5.637-4.758-8.447-7.153c-3.4-2.9-6.343-6.427-7.187-10.468a9.685,9.685,0,0,1,4.914-10.684c2.293-1.154,5.039-1.409,7.57-2.117s5.11-2.15,5.605-4.411a8.918,8.918,0,0,0-.259-3.41c-1.647-9.441,5.415-19.353,15.869-22.276-.414,2.323,3.216,3.956,5.762,3.138s4.051-3.025,5.327-5.093,2.7-4.295,5.187-5.229c2-.75,4.3-.508,6.476-.232,1.682.216,3.646.625,4.311,1.983a3.553,3.553,0,0,1,.225,1.8c-.336,5.5-2.163,10.833-2.8,16.3s.094,11.448,4.188,15.728c2.462,2.574,6.014,4.4,7.781,7.363,2.8,4.7.162,10.294-2.648,14.916s-5.883,9.9-3.819,14.867c2.074,4.994,25.515-1.134,22.759,31.56-.667,7.923-11.494.922-9.633,8.638.788,3.263-6.344,1.137-6.7,4.438-.114,1.048,4.874,5.5,4.6,6.529-.944,3.558-4.825,4.087-1.552,6.456,1.709,1.238,3.946,2.188,4.688,4,1.329,3.254-3.161,5.979-7.066,6.6-3.261.521-4.93-9.727-7.487-7.687-3,2.4-5.654,10.665-21.517,10.427-6.558-.1-10.823-17.731-15.39-14.086C8053.579,9471.925,8039.668,9467.771,8048.05,9453.382Z" transform="translate(-8037.427 -9333.476)" fill="#e3e5fc"/>
          <g id="Group_330" data-name="Group 330" transform="translate(37.147 43.13)">
            <rect id="Rectangle_341" data-name="Rectangle 341" width="0.741" height="162.565" transform="translate(0 0.017) rotate(-1.279)" fill="#4b369d"/>
          </g>
          <g id="Group_331" data-name="Group 331" transform="translate(38.777 81.496)">
            <path id="Path_324" data-name="Path 324" d="M8175.82,9636.563l-.513-.536c1.314-1.258,12.9-12.312,15.27-12.773l.143.726C8189.089,9624.3,8180.917,9631.679,8175.82,9636.563Z" transform="translate(-8175.307 -9623.254)" fill="#4b369d"/>
          </g>
          <g id="Group_332" data-name="Group 332" transform="translate(19.572 50.833)">
            <path id="Path_325" data-name="Path 325" d="M8125.068,9538.911c-4.365-5.267-18.565-22.595-18.035-24.345a.5.5,0,0,1,.339-.341l.212.71a.239.239,0,0,0,.163-.181c-.049,1.464,10.948,15.3,17.893,23.685Z" transform="translate(-8107.019 -9514.226)" fill="#4b369d"/>
          </g>
          <g id="Group_333" data-name="Group 333" transform="translate(37.532 42.734)">
            <path id="Path_326" data-name="Path 326" d="M8171.456,9499.584l-.574-.467c.418-.517,10.263-12.64,11.3-13.691l.526.521C8181.7,9486.973,8171.559,9499.457,8171.456,9499.584Z" transform="translate(-8170.882 -9485.426)" fill="#4b369d"/>
          </g>
        </g>
        <g id="Tree-2" data-name="Tree" transform="translate(55.558 100.432)">
          <g id="Group_336" data-name="Group 336">
            <path id="Path_327" data-name="Path 327" d="M8225,9749.146a5.2,5.2,0,0,1-.8-2.983c.486-3.722,6.471-2.82,9.268-5.323,2.916-2.61,1.074-7.422-1.156-10.64s-4.77-7.388-2.7-10.713c1.014-1.632,2.977-2.6,3.668-4.395.8-2.067-.348-4.634.842-6.5,1.752-2.751,6-1.048,8.621.889,1.867-3.017,1.686-6.811,2.27-10.309s2.676-7.381,6.213-7.663c.77,2.095.635,5.032,2.73,5.8,1.68.619,3.4-.842,4.357-2.359s1.734-3.337,3.367-4.074c2.871-1.3,6.035,1.994,6.1,5.144s-1.734,5.981-3.018,8.861c-1.213,2.723-2,5.813-1.189,8.683s3.656,5.309,6.6,4.813c1.055-.177,2.24-.675,3.1-.044a2.4,2.4,0,0,1,.8,1.492c.645,3.056-.75,6.116-1.732,9.081s-1.441,6.587.656,8.9c.969,1.07,2.406,1.745,3.043,3.042,1.365,2.795-1.857,5.6-4.707,6.846s-6.391,3.082-6.1,6.179c.15,1.6,1.383,2.951,1.512,4.554.215,2.683-2.717,4.6-5.391,4.921-4.76.58-7.652.5-12.086,2.482-3.852,1.722-5.217,2.816-8.994.592C8234.42,9762.982,8228.08,9755.092,8225,9749.146Z" transform="translate(-8224.177 -9690.586)" fill="#fdc510"/>
            <g id="Group_334" data-name="Group 334" transform="translate(10.625 33.355)">
              <rect id="Rectangle_342" data-name="Rectangle 342" width="85.175" height="0.741" transform="translate(0 83.375) rotate(-78.198)" fill="#4b369d"/>
            </g>
            <g id="Group_335" data-name="Group 335" transform="translate(21.294 54.78)">
              <rect id="Rectangle_343" data-name="Rectangle 343" width="18.899" height="0.74" transform="translate(0 10.978) rotate(-35.512)" fill="#4b369d"/>
            </g>
          </g>
          <g id="Group_337" data-name="Group 337" transform="translate(19.909 33.262)">
            <rect id="Rectangle_344" data-name="Rectangle 344" width="0.74" height="19.996" transform="matrix(0.977, -0.212, 0.212, 0.977, 0, 0.157)" fill="#4b369d"/>
          </g>
        </g>
      </g>
    </g>
  </g>
</svg>
