<?xml version="1.0" standalone="no"?><svg xmlns="http://www.w3.org/2000/svg" viewBox="0 0 1440 320"><path fill="#f6e849" fill-opacity="1" d="M0,192L40,213.3C80,235,160,277,240,288C320,299,400,277,480,250.7C560,224,640,192,720,192C800,192,880,224,960,202.7C1040,181,1120,107,1200,80C1280,53,1360,75,1400,85.3L1440,96L1440,320L1400,320C1360,320,1280,320,1200,320C1120,320,1040,320,960,320C880,320,800,320,720,320C640,320,560,320,480,320C400,320,320,320,240,320C160,320,80,320,40,320L0,320Z"></path></svg>