<?xml version="1.0" encoding="utf-8"?>
<!-- Generator: Adobe Illustrator 23.0.3, SVG Export Plug-In . SVG Version: 6.00 Build 0)  -->
<svg version="1.1" xmlns="http://www.w3.org/2000/svg" xmlns:xlink="http://www.w3.org/1999/xlink" x="0px" y="0px"
	 viewBox="0 0 1799.6 1200.87" style="enable-background:new 0 0 1799.6 1200.87;" xml:space="preserve">
<style type="text/css">
	.st0{fill:#E3E5FC;}
	.st1{opacity:0.49;fill:url(#SVGID_1_);}
	.st2{fill:#FDC510;}
	.st3{fill:#FFFFFF;}
	.st4{fill:#978CFF;}
	.st5{fill:#A7ADFF;}
	.st6{fill:#4B369D;}
	.st7{fill:#D4A79A;}
	.st8{fill:#F44E4E;}
	.st9{fill:url(#SVGID_2_);}
	.st10{fill:#D7384E;}
	.st11{fill:#F3AA02;}
	.st12{fill:#EAC2AB;}
	.st13{fill:#5A54FF;}
	.st14{opacity:0.72;}
</style>
<g id="Background">
	<g id="Chair">
		<path class="st0" d="M1080.33,558.8c0,0,59.79,95.82,116.93,148.61c57.14,52.79,123.65,106.87,83.37,206.18
			c-40.28,99.31-159,139.98-371.3,134.79s-287.26-6.32-333.82-111.64s108.4-128.94,214.25-160.96S1080.33,558.8,1080.33,558.8z"/>
		<linearGradient id="SVGID_1_" gradientUnits="userSpaceOnUse" x1="888.3677" y1="904.8155" x2="843.4068" y2="742.3433">
			<stop  offset="0" style="stop-color:#A7ADFF"/>
			<stop  offset="1" style="stop-color:#E3E5FC"/>
		</linearGradient>
		<path class="st1" d="M1090.54,767.98c0,0,29.12,112.4-74.7,139.08c-103.82,26.69-297.54,22.76-370.47-29.17
			S1090.54,767.98,1090.54,767.98z"/>
	</g>
</g>
<g id="Nature">
	<g id="Plant">
		<g>
			<path class="st2" d="M1360.81,962.56c10.28-6.33,15.18-20.2,11.16-31.58c-6.58-18.6-23.59-12.33-35.68-22.1
				c-14.24-11.5,2.98-29.59,2.03-43.17c-1.04-14.94-14.49-29.37-18.54-43.81c-9.29-33.19,28.44-8.42,39.2-12.29
				c4.5-1.62,7.45-6.14,8.49-10.82c2.64-11.93-2.38-21.57,4.15-32.86c6.31-10.9,15.63-15.82,12.94-30.62
				c-1.52-8.38-6.69-16.06-6.56-24.58c0.04-2.44,0.73-5.18,2.86-6.37c1.62-0.91,3.64-0.66,5.39-0.05
				c5.81,2.04,9.63,7.46,14.31,11.47c4.68,4.01,12.2,6.49,16.69,2.27c2.99-2.81,3.28-7.35,3.89-11.41
				c1.09-7.32,6.23-12.4,12.61-8.17c6.95,4.61,4.29,22.76,3.24,29.27c-1.66,10.32-4.18,21.04-1.11,31.04
				c5.07,16.54,18.93-1.99,24.97-7.47c4.95-4.49,13.22-7.18,17.97-2.49c9.46,9.33-5.75,21.8-7.75,30.64
				c-0.96,4.21,0.28,9.25,4.02,11.41c10.95,6.34,20.2-4.96,21.86,11.91c1.14,11.56-9.32,22.58-2.83,34.14
				c5.67,10.1,24.54,14.39,17.08,28.56c-4.58,8.7-24.3,8.31-23.26,20.69c0.68,8.07,12.81,11.73,12.82,19.83
				c0.01,6.1-7.09,9.7-13.18,10.01s-12.51-1.11-18.12,1.27c-6.37,2.7-10.06,10.53-8.09,17.17c1.72,5.77,7.09,11.02,5.4,16.8
				c-2.03,6.95-11.66,7.2-18.81,6.09C1418.74,952.77,1387.45,949.72,1360.81,962.56z"/>
			<g>
				<path class="st3" d="M1415.99,959.68c-1.04,0-1.87-0.84-1.87-1.87V827.44c0-1.03,0.84-1.87,1.87-1.87
					c1.04,0,1.87,0.84,1.87,1.87V957.8C1417.86,958.84,1417.03,959.68,1415.99,959.68z"/>
			</g>
			<g>
				<path class="st3" d="M1415.99,908.94c-0.42,0-0.83-0.14-1.18-0.42c-0.8-0.65-0.93-1.83-0.27-2.64l34.19-42.15
					c0.66-0.81,1.84-0.92,2.64-0.27c0.8,0.65,0.93,1.83,0.27,2.64l-34.19,42.15C1417.07,908.7,1416.54,908.94,1415.99,908.94z"/>
			</g>
			<g>
				<path class="st3" d="M1415.99,873.34c-0.43,0-0.86-0.14-1.21-0.44l-40.75-34.29c-0.79-0.67-0.89-1.85-0.23-2.64
					c0.67-0.79,1.85-0.89,2.64-0.23l40.75,34.29c0.79,0.67,0.89,1.85,0.23,2.64C1417.05,873.12,1416.52,873.34,1415.99,873.34z"/>
			</g>
		</g>
		<g>
			<path class="st4" d="M1355.11,944.29c5.36,35.63,10.19,72.9,19.21,107.28c0.75,2.86,1.63,5.86,3.45,7.7
				c2.15,2.17,5.07,2.21,7.76,2.15c15.56-0.36,31.15,0.64,46.71,0.55c14.71-0.08,26.86,1.11,28.4-23.32
				c0.53-8.47,1.87-94.37,9.68-94.37C1470.29,944.29,1355.11,944.29,1355.11,944.29z"/>
			<path class="st5" d="M1459.8,965.58h-94.17c-11.71,0-21.3-9.58-21.3-21.3l0,0c0-11.71,9.58-21.3,21.3-21.3h94.17
				c11.71,0,21.3,9.58,21.3,21.3l0,0C1481.1,956,1471.51,965.58,1459.8,965.58z"/>
		</g>
	</g>
</g>
<g id="Characters_1_">
	<g id="Woman_1_">
		<path id="Hair_3_" class="st6" d="M1005.86,183.38c0,0,12.34,27.42-6.94,44.3c-19.28,16.88-45.49,3.52-70.93,18.98
			s-22.7,33.78-11.03,74.57c13.88,48.52,29.04,47.07,42.67,50.58c13.63,3.52,17.7,41.49,19.24,59.07
			c1.54,17.58,3.85,29.53-44.72,53.44c-48.57,23.91-22.07,60.48-17.2,107.88c5.39,52.43-56.82,82.67-67.61,95.33
			c-10.79,12.66-36.24,14.77-50.12-11.95c-13.88-26.72,56.65-46.39,50.49-89.28c-6.17-42.89-43.83-71.75,9.37-113.94
			s42.69-75.93,24.96-110.38c-17.73-34.45-26.21-47.81-11.57-92.11s-0.77-30.94,18.5-66.1
			C910.26,168.62,980.42,129.94,1005.86,183.38z"/>
		<path id="Neck" class="st7" d="M972.31,391.49l3.87,72.19l56.51,21.79c0,0-33.98-49.72-28.22-93.99
			C1010.23,347.22,972.31,391.49,972.31,391.49z"/>
		<g id="Body">
			<path class="st8" d="M1103.27,625.68c0,0-3.75-6.87-14.99-42.15c-11.24-35.28-15.3-48.4-30.91-82.54
				c-15.61-34.14-48.09-55.47-48.09-55.47l-40.59-2.19c0,0-5,0.31-28.41,19.67c-23.42,19.36-45.9,74.63-45.9,74.63l-9.99,109.91
				l70.26,51.83l49.66,17.9c-2.39-3.19-4.32-6.57-5.52-10.15c-8.32-24.73,19.56-161.69,20.5-173.87
				c0.94-12.18,24.53,103.98,24.53,103.98l20.43-5.93l14.02,44.67l8.77-45.61L1103.27,625.68z"/>
			<linearGradient id="SVGID_2_" gradientUnits="userSpaceOnUse" x1="1076.2408" y1="688.0284" x2="1013.6533" y2="461.8595">
				<stop  offset="0" style="stop-color:#A7ADFF"/>
				<stop  offset="1" style="stop-color:#E3E5FC"/>
			</linearGradient>
			<polygon class="st9" points="1081.1,685.01 1078.26,675.97 1073.73,699.53 			"/>
			<path class="st2" d="M1043.8,637.23c0,0-23.59-116.16-24.53-103.98c-0.94,12.18-28.82,149.14-20.5,173.87
				c1.2,3.58,3.13,6.96,5.52,10.15l51.09,18.41l18.35-36.16l4.53-23.56l-14.02-44.67L1043.8,637.23z"/>
			<path class="st10" d="M1043.8,637.23c0,0-23.59-116.16-24.53-103.98c-0.94,12.18-28.82,149.14-20.5,173.87
				c1.2,3.58,3.13,6.96,5.52,10.15l51.09,18.41l18.35-36.16l4.53-23.56l-14.02-44.67L1043.8,637.23z"/>
		</g>
	</g>
</g>
<g id="UI_1_">
	<g id="Laptop_1_">
		<g>
			<polygon points="629.78,593.55 916.64,607.39 972.31,661.31 704.37,654.56 			"/>
		</g>
		<g>
			<path class="st0" d="M900.28,616.09L641.3,598.6c-7,0.54-13.07-4.17-13.56-10.54l-52.19-140.02c-0.49-6.36,4.78-11.96,11.77-12.5
				l258.98,17.5c7-0.54,13.07,4.17,13.56,10.54l52.19,140.02C912.55,609.95,907.27,615.55,900.28,616.09z"/>
			
				<ellipse transform="matrix(0.2124 -0.9772 0.9772 0.2124 64.2235 1141.814)" class="st5" cx="740.43" cy="531.07" rx="26.23" ry="30.6"/>
		</g>
	</g>
</g>
<g id="Characters">
	<g id="Woman">
		<g id="Leg_1_">
			<path id="Skin" class="st7" d="M511.77,842.19l-73.23,107.25l33.34,28.17l69.76-116.44
				C541.64,861.16,525.65,843.17,511.77,842.19z"/>
			<path id="Shoe" class="st11" d="M290.23,1009.26c0,0,28.17,9.62,82.15,13.62c53.98,4.01,114.23,6.01,125.18-2
				c10.95-8.01,17.99-76.12,0-76.12c-17.99,0-24.99,26.04-56.72,2.8c-27.18-19.91-48.9,17.63-96.23,27.64
				S278.11,989.23,290.23,1009.26z"/>
			<path id="Leg_2_" class="st6" d="M967.6,726.22c-6.47-12.17-41.49-5.31-83.46-20.92c-41.98-15.61-69.09-48.4-116.78-86.18
				c-47.69-37.78-44.43-31.23-65.01-32.79c-20.58-1.56-46.06,54.02-60.44,83.38c-30.27,61.82-68.58,117.06-125.81,153
				c-17.39,10.92-94.01,52.46-106.81,69.86c-26.96,36.62,105.59,36.93,140.25,41.16c34.31,4.18,53.55-15.31,67.43-46.11
				c15.84-35.13,33.17-69.51,50.48-103.89c8.66-17.2,17.36-34.39,25.85-51.68c3.66-7.45,11.58-34.49,20.41-37.86
				c27.16-10.34,63.01,72.45,70.63,91.05c15.35,37.47,71.54,81.19,112.37,85.56c40.83,4.37,71.54-22.79,84.93-62.45
				C995.04,768.69,967.6,726.22,967.6,726.22z"/>
		</g>
		<g id="Leg">
			<path id="Skin_1_" class="st12" d="M651.46,850.32l-73.23,107.25l33.34,28.17l69.76-116.44
				C681.32,869.29,665.34,851.3,651.46,850.32z"/>
			<path id="Shoe_1_" class="st2" d="M429.92,1017.39c0,0,28.17,9.62,82.15,13.62c53.98,4.01,114.23,6.01,125.18-2
				c10.95-8.01,17.99-76.12,0-76.12c-17.99,0-24.99,26.04-56.72,2.8c-27.18-19.91-48.9,17.63-96.23,27.64
				S417.79,997.36,429.92,1017.39z"/>
			<path id="Leg_3_" class="st13" d="M1073.6,726.22c-6.18-12.17-39.66-5.31-79.78-20.92c-40.12-15.61-66.04-48.4-111.63-86.18
				c-45.59-37.78-42.47-31.23-62.14-32.79c-19.67-1.56-44.03,54.02-57.77,83.38c-42.27,90.31-129.26,150.92-208.43,206.68
				c-4.92,3.46-10.44,8.27-9.42,14.2c0.52,3.02,2.68,5.46,4.89,7.59c29.37,28.35,84.39,41.1,123.93,39.25
				c39.81-1.86,61.42-35.08,76.46-67.93c26.9-58.77,53.18-119.33,85.86-175.11c12.28-20.94,51.42,63.6,54.82,71.47
				c20.27,47,60.51,98.79,115.46,104.94c39.03,4.37,68.38-22.79,81.19-62.45C1099.83,768.69,1073.6,726.22,1073.6,726.22z"/>
		</g>
		<path id="Face" class="st12" d="M921.82,237.82c0,0-30.18,22.26-18.17,72.26c12.01,50,49.36,92.7,64.43,89.69
			c41.67-8.32,56.28-37.77,70.73-63.04c17.72-30.99-17.46-106.59-17.46-106.59l-33.23-17.92L921.82,237.82z"/>
		<g id="Hair_1_">
			<path class="st6" d="M981.96,215.73c0,0,20.97,7.03,39.4,36.56c18.43,29.53,6.34,34.35,6.34,73.94c0,11.57-2.17,22.97-8.44,32.83
				c-4.55,7.16-11.04,12.8-15.75,19.82c-5.95,8.86-7.85,18.86-7.37,29.43c1.01,22.35,4.58,40.91,24.43,53.53
				c21.46,13.64,31.47,31.86,37.11,56.48c6.75,29.48,55.35,46.16,72.31,34.91c16.96-11.25-33.63-3.74-23.6-52.25
				c10.02-48.52,13.46-69.11-15.84-82.59s-15.3-17.04,0.12-46.57s-24.33-29.17-8.64-80.57c18.11-59.33,1.7-125.45-86.97-107.17
				S981.96,215.73,981.96,215.73z"/>
			<g>
				<path class="st6" d="M960.37,272.19c25.44-15.47,19.28-27.64,38.56-44.51c19.27-16.88,6.94-44.3,6.94-44.3
					c-25.44-53.44-95.6-14.77-114.88,20.39c-19.28,35.16-3.85,21.8-18.5,66.1c-10.1,30.53-9.2,46.37-1.86,64.55l41.47,16.79
					C895.31,287.51,941.23,283.82,960.37,272.19z"/>
			</g>
		</g>
		<path id="Arm" class="st12" d="M1063.61,683.13c0,0,0,17.17-6.56,14.05c-6.56-3.12-68.07-41.53-76.19-50.58
			c-8.12-9.06-27.17-41.84-28.1-48.4c-0.94-6.56,2.19-6.87-10.62-5c-12.8,1.87-35.91,9.06-32.47,13.11
			c3.43,4.06,13.11,1.25,13.11,1.25s-11.34,7.18-5.83,8.12c5.51,0.94,21.75-2.19,21.75,2.81s-0.94,21.86,2.81,30.29
			c3.75,8.43,8.43,11.24,20.61,14.05c12.18,2.81,14.33,1.87,24.34,12.18s65.9,59.95,73.08,62.45c7.18,2.5,10.3,6.87,19.05-9.06
			s14.99-28.1,15.61-53.08c0.62-24.98-2.19-49.02-2.19-49.02l-27.79,5C1064.24,631.3,1066.73,659.4,1063.61,683.13z"/>
	</g>
</g>
<g id="UI">
	<g id="Chat_2_">
		<path class="st0" d="M1153.51,365.94c4.98-22.82,16.1-45.57,24.26-67.48c4.34-11.64,13.87-27.34,14.84-39.81
			c0.32-4.09,4.22-7.12,8.71-6.77l166.34-11.24c4.49,0.35,7.88,3.94,7.56,8.03l-33.52,89.93c-0.32,4.09-4.22,7.12-8.71,6.77
			l-134.15,8.57c-8.22,4.99-21.26,9.98-29.49,14.95C1160.22,374.4,1148.94,386.88,1153.51,365.94z"/>
		<g>
			<path class="st3" d="M1273.89,308.68l54.05-2.35c3.64-0.16,6.48-3.26,6.32-6.9l0,0c-0.16-3.64-3.26-6.48-6.9-6.32l-54.05,2.35
				c-3.64,0.16-6.48,3.26-6.32,6.9v0C1267.15,305.99,1270.25,308.83,1273.89,308.68z"/>
			<path class="st3" d="M1235.02,286.29l97.92-4.25c3.64-0.16,6.48-3.26,6.32-6.9l0,0c-0.16-3.64-3.26-6.48-6.9-6.32l-97.92,4.25
				c-3.64,0.16-6.48,3.26-6.32,6.9l0,0C1228.28,283.6,1231.38,286.45,1235.02,286.29z"/>
		</g>
	</g>
	<g id="Chat_1_">
		<path class="st0" d="M666.55,386.38c-5.76-26.42-18.63-52.75-28.09-78.11c-5.02-13.47-16.06-31.64-17.18-46.08
			c-0.37-4.73-4.88-8.24-10.08-7.83l-192.54-13.01c-5.2,0.4-9.12,4.56-8.75,9.29l38.8,104.1c0.37,4.73,4.88,8.24,10.08,7.83
			l155.28,9.93c9.52,5.77,24.6,11.56,34.14,17.31C658.78,396.18,671.84,410.63,666.55,386.38z"/>
		<g>
			<path class="st3" d="M527.21,320.1l-62.56-2.72c-4.21-0.18-7.5-3.78-7.32-7.99v0c0.18-4.21,3.78-7.5,7.99-7.32l62.56,2.72
				c4.21,0.18,7.5,3.78,7.32,7.99l0,0C535.01,316.99,531.42,320.28,527.21,320.1z"/>
			<path class="st3" d="M572.2,294.19l-113.35-4.92c-4.21-0.18-7.5-3.78-7.32-7.99v0c0.18-4.21,3.78-7.5,7.99-7.32l113.35,4.92
				c4.21,0.18,7.5,3.78,7.32,7.99v0C580,291.08,576.41,294.37,572.2,294.19z"/>
		</g>
	</g>
	<g id="Chat" class="st14">
		<path class="st0" d="M772.26,232.27c-3.71-17.01-12-33.96-18.08-50.29c-3.23-8.67-10.34-20.37-11.06-29.67
			c-0.24-3.05-3.14-5.3-6.49-5.04l-123.97-8.37c-3.35,0.26-5.87,2.94-5.64,5.98L632,211.9c0.24,3.05,3.14,5.3,6.49,5.04l99.98,6.39
			c6.13,3.72,15.84,7.44,21.98,11.14C767.26,238.58,775.66,247.88,772.26,232.27z"/>
		<g>
			<path class="st3" d="M682.54,189.59l-40.28-1.75c-2.71-0.12-4.83-2.43-4.71-5.14v0c0.12-2.71,2.43-4.83,5.14-4.71l40.28,1.75
				c2.71,0.12,4.83,2.43,4.71,5.14l0,0C687.56,187.59,685.25,189.71,682.54,189.59z"/>
			<path class="st3" d="M711.51,172.91l-72.98-3.17c-2.71-0.12-4.83-2.43-4.71-5.14v0c0.12-2.71,2.43-4.83,5.14-4.71l72.98,3.17
				c2.71,0.12,4.83,2.43,4.71,5.14v0C716.53,170.91,714.22,173.03,711.51,172.91z"/>
		</g>
	</g>
	<g id="Element">
		<path class="st0" d="M779.81,329.24l-62.56-2.72c-4.21-0.18-7.5-3.78-7.32-7.99l0,0c0.18-4.21,3.78-7.5,7.99-7.32l62.56,2.72
			c4.21,0.18,7.5,3.78,7.32,7.99v0C787.61,326.13,784.01,329.42,779.81,329.24z"/>
		<path class="st0" d="M786.05,359.81l-62.56-2.72c-4.21-0.18-7.5-3.78-7.32-7.99v0c0.18-4.21,3.78-7.5,7.99-7.32l62.56,2.72
			c4.21,0.18,7.5,3.78,7.32,7.99v0C793.85,356.7,790.26,360,786.05,359.81z"/>
		<path class="st0" d="M797.14,391.2l-62.56-2.72c-4.21-0.18-7.5-3.78-7.32-7.99l0,0c0.18-4.21,3.78-7.5,7.99-7.32l62.56,2.72
			c4.21,0.18,7.5,3.78,7.32,7.99v0C804.95,388.09,801.35,391.38,797.14,391.2z"/>
	</g>
</g>
</svg>
