<svg xmlns="http://www.w3.org/2000/svg" width="334" height="214.088" viewBox="0 0 334 214.088"><defs><style>.a{fill:#eff4ff;}.b,.d{fill:#fff;}.b,.e{stroke:#75a4fe;}.b,.c,.d{stroke-linecap:round;}.b,.c,.d,.e{stroke-miterlimit:10;stroke-width:2.5px;}.c{fill:none;stroke-linejoin:round;}.c,.d{stroke:#a4c3fe;}.e{fill:#e8f0fe;}</style></defs><g transform="translate(0 1.543)"><path class="a" d="M312.351,97.538a10.824,10.824,0,1,1,10.824,10.838A10.831,10.831,0,0,1,312.351,97.538ZM71.129,108.376a10.838,10.838,0,0,1,0-21.676H10.824a10.837,10.837,0,0,1,0-21.674H72.676a10.838,10.838,0,0,0,0-21.676H34.018a10.837,10.837,0,0,1,0-21.674H95.871A10.838,10.838,0,0,1,95.871,0h88.138a10.838,10.838,0,0,1,0,21.676h98.963a10.837,10.837,0,0,1,0,21.674h34.019a10.838,10.838,0,0,1,0,21.676H287.612a10.837,10.837,0,0,0,0,21.674h9.277a10.838,10.838,0,0,1,0,21.676Z" transform="translate(0 46.54)"/><path class="b" d="M72.775,149.377a60.016,60.016,0,0,1-11.479-1.1l15.182.965C75.3,149.333,74.057,149.376,72.775,149.377Zm10.377-.73h0L55.08,146.655a73.424,73.424,0,0,1-27-13.679A74.7,74.7,0,0,1,31.889,13.56,74.216,74.216,0,0,1,146.509,56.726a75.487,75.487,0,0,1,1.12,30.187,74.291,74.291,0,0,1-64.476,61.734Z" transform="matrix(0.719, -0.695, 0.695, 0.719, 69.189, 103.403)"/><g transform="translate(231.171 17.124)"><path class="c" d="M.5,0V9.289" transform="translate(14.963)"/><path class="c" d="M.5,0V9.289" transform="translate(14.963 21.675)"/><path class="c" d="M0,0V9.278" transform="translate(0 15.482) rotate(-90)"/><path class="c" d="M0,0V9.278" transform="translate(21.648 15.482) rotate(-90)"/></g><g transform="translate(105.921 176.591)"><path class="c" d="M.5,0V6.193" transform="translate(11.87)"/><path class="c" d="M.5,0V6.193" transform="translate(11.87 18.579)"/><path class="c" d="M0,0V6.185" transform="translate(0 12.386) rotate(-90)"/><path class="c" d="M0,0V6.185" transform="translate(18.556 12.386) rotate(-90)"/></g><path class="d" d="M49.994,5.337,17.507.389A65.922,65.922,0,0,1,24.262.036,64.536,64.536,0,0,1,50,5.334ZM.008,4.747v0c1.387-.561,2.8-1.077,4.212-1.534,1.945-.635,3.949-1.183,5.955-1.629Z" transform="matrix(0.719, -0.695, 0.695, 0.719, 112.139, 75.425)"/><path class="e" d="M9.247,22.246a5.572,5.572,0,0,0-7.8.348A5.4,5.4,0,0,0,1.8,30.3L27.789,53.739a7.8,7.8,0,0,0,10.923-.488c.12-.132.12-.132.237-.268L76.039,8.939a5.405,5.405,0,0,0-.716-7.679,5.571,5.571,0,0,0-7.777.707L32.675,43.375Z" transform="translate(136.074 82.149)"/></g></svg>