<svg xmlns="http://www.w3.org/2000/svg" width="334" height="151.25" viewBox="0 0 334 151.25"><defs><style>.a{fill:#eff4ff;}.b{fill:#fff;}.b,.c,.d{stroke:#75a4fe;}.b,.d,.e,.h{stroke-linecap:round;}.b,.c,.d,.e,.f,.h{stroke-miterlimit:10;}.b,.c,.d,.e,.h{stroke-width:2.5px;}.c,.d,.e,.f,.h{fill:none;}.d,.h{stroke-linejoin:round;}.e,.f,.h{stroke:#a4c3fe;}.f{stroke-width:2px;}.g{fill:#a4c3fe;}</style></defs><g transform="translate(0 1)"><path class="a" d="M312.351,97.781a10.824,10.824,0,1,1,10.824,10.865A10.845,10.845,0,0,1,312.351,97.781ZM71.129,108.646a10.865,10.865,0,0,1,0-21.73H10.824a10.864,10.864,0,0,1,0-21.728H72.676a10.865,10.865,0,0,0,0-21.73H34.018a10.864,10.864,0,0,1,0-21.728H95.871a10.865,10.865,0,0,1,0-21.73h88.138a10.865,10.865,0,0,1,0,21.73h98.963a10.864,10.864,0,0,1,0,21.728h34.019a10.865,10.865,0,0,1,0,21.73h-29.38a10.864,10.864,0,0,0,0,21.728h9.277a10.865,10.865,0,0,1,0,21.73Z" transform="translate(0 31.042)"/><path class="b" d="M146.9,128.823H34.018a34.131,34.131,0,0,1-24.054-9.774,32.922,32.922,0,0,1,0-47.192,34.13,34.13,0,0,1,24.054-9.774c.782,0,1.582.027,2.377.081a53.46,53.46,0,0,1-.829-9.393A52.8,52.8,0,0,1,67.674,4.147a52.485,52.485,0,0,1,51.46,5.995,52.878,52.878,0,0,1,18.855,25.819,48.339,48.339,0,0,1,5.043-.263,47.321,47.321,0,0,1,33.349,13.637,46.377,46.377,0,0,1,10.107,14.8,45.763,45.763,0,0,1,3.706,18.124,46.28,46.28,0,0,1-12.559,31.7A47.148,47.148,0,0,1,146.9,128.789v.032Z" transform="translate(81.954 20.177)"/><ellipse class="c" cx="8.505" cy="8.536" rx="8.505" ry="8.536" transform="translate(162.361 110.198)"/><path class="d" d="M0,16.642,10.824,8.116,0,0" transform="translate(146.898 84.243)"/><path class="d" d="M3.824,16.642-7,8.116,3.824,0" transform="translate(191.009 84.243)"/><path class="e" d="M-13.44,0A29.489,29.489,0,0,1,7.342,20.632" transform="translate(198.996 35.698)"/><ellipse class="f" cx="4.639" cy="4.656" rx="4.639" ry="4.656" transform="translate(213.389)"/><ellipse class="g" cx="4.639" cy="4.656" rx="4.639" ry="4.656" transform="translate(261.324 24.833)"/><path class="h" d="M6.56,6.585.2,12.973,6.56,6.585,0,0,6.56,6.585,13.121,0,6.56,6.585l6.364,6.388Z" transform="translate(230.023 21.353)"/><path class="h" d="M4.639,4.656,0,9.313,4.639,4.656,0,0,4.639,4.656,9.278,0,4.639,4.656,9.278,9.313Z" transform="translate(84.124 49.04)"/><ellipse class="g" cx="4.639" cy="4.656" rx="4.639" ry="4.656" transform="translate(100.509 29.49)"/></g></svg>