<svg xmlns="http://www.w3.org/2000/svg" width="334" height="132.5" viewBox="0 0 334 132.5"><defs><style>.a{fill:#eff4ff;}.b{fill:#fff;}.b,.d{stroke:#75a4fe;}.b,.c,.d{stroke-linecap:round;stroke-miterlimit:10;stroke-width:2.5px;}.c,.d{fill:none;}.c{stroke:#a4c3fe;}.e{fill:#75a4fe;}</style></defs><g transform="translate(0 1.25)"><path class="a" d="M312.351,98.675a10.825,10.825,0,1,1,10.824,10.964A10.9,10.9,0,0,1,312.351,98.675ZM71.129,109.639a10.965,10.965,0,0,1,0-21.928H10.824a10.964,10.964,0,0,1,0-21.927H72.676a10.965,10.965,0,0,0,0-21.928H34.018a10.964,10.964,0,0,1,0-21.927H95.871A10.9,10.9,0,0,1,85.046,10.964,10.894,10.894,0,0,1,95.871,0h88.138a10.894,10.894,0,0,1,10.824,10.964,10.9,10.9,0,0,1-10.824,10.964h98.963a10.964,10.964,0,0,1,0,21.927h34.019a10.965,10.965,0,0,1,0,21.928H287.612a10.964,10.964,0,0,0,0,21.927h9.277a10.965,10.965,0,0,1,0,21.928Z" transform="translate(0 10.964)"/><path class="b" d="M146.9,130H34.018a33.97,33.97,0,0,1-24.054-9.863,33.435,33.435,0,0,1,0-47.623A33.97,33.97,0,0,1,34.018,62.65c.782,0,1.582.028,2.377.082a54.429,54.429,0,0,1-.829-9.478A53.434,53.434,0,0,1,50.964,15.6,52.366,52.366,0,0,1,67.674,4.185a52.081,52.081,0,0,1,51.46,6.05A53.335,53.335,0,0,1,137.989,36.29a47.907,47.907,0,0,1,5.043-.265,47.191,47.191,0,0,1,43.456,28.7,47.135,47.135,0,0,1-39.59,65.244V130Z" transform="translate(81.954)"/><path class="c" d="M-13.44,0A29.622,29.622,0,0,1,7.342,20.821" transform="translate(198.996 18.795)"/><path class="d" d="M21.648,10.964A10.9,10.9,0,0,0,10.824,0,10.9,10.9,0,0,0,0,10.964" transform="translate(162.361 79.88) rotate(180)"/><path class="d" d="M21.648,10.964A10.9,10.9,0,0,0,10.824,0,10.9,10.9,0,0,0,0,10.964" transform="translate(207.204 79.88) rotate(180)"/><path class="d" d="M0,1H22.421" transform="translate(162.361 97.675)"/><path class="e" d="M26.074,41.833V39.275l10.291-12.63h-9.5V23.939H40.3v2.381L30.007,39.126h10.54v2.707ZM0,24.6V21.088L14.152,3.721H1.088V0H19.561V3.273L5.409,20.881H19.9V24.6Z" transform="translate(61.088 5.156)"/></g></svg>